<svg version="1.2" xmlns="http://www.w3.org/2000/svg" viewBox="0 0 161 161" width="190" height="190">
	<title>Folder 2</title>
	<style>
		.s0 { fill: #ffffff } 
		.s1 { opacity: .7;fill: #66d8b5 } 
	</style>
	<g id="Folder 2">
		<g id="Layer 2 00000150795567760405867000000004112518078642442674 ">
			<g id="data">
				<path id="&lt;Compound Path&gt;" fill-rule="evenodd" class="s0" d="m80.8 71.6c-6.5 0-12.7-1.2-17.3-3.4-5-2.4-7.8-5.7-7.8-9.4 0-3.6 2.8-7 7.8-9.3 4.6-2.2 10.8-3.5 17.3-3.5 6.5 0 12.6 1.3 17.3 3.5 5 2.3 7.7 5.7 7.7 9.3 0 3.7-2.7 7-7.7 9.4-4.7 2.2-10.8 3.4-17.3 3.4zm0-22.7c-13.5 0-22.8 5.2-22.8 9.9 0 4.8 9.3 10 22.8 10 13.4 0 22.8-5.2 22.8-10 0-4.7-9.4-9.9-22.8-9.9z"/>
				<path id="&lt;Path&gt;" class="s0" d="m80.8 87.3c-6.5 0-12.7-1.2-17.3-3.4-5-2.4-7.8-5.7-7.8-9.4 0-0.8 0.5-1.4 1.2-1.4 0.6 0 1.1 0.6 1.1 1.4 0 4.7 9.3 10 22.8 10 13.4 0 22.8-5.3 22.8-10 0-0.8 0.5-1.4 1.1-1.4 0.6 0 1.1 0.6 1.1 1.4 0 3.7-2.7 7-7.7 9.4-4.7 2.2-10.8 3.4-17.3 3.4z"/>
				<path id="&lt;Path&gt;" class="s0" d="m80.8 102.9c-6.5 0-12.7-1.2-17.3-3.4-5-2.4-7.8-5.7-7.8-9.4 0-0.7 0.5-1.4 1.2-1.4 0.6 0 1.1 0.7 1.1 1.4 0 4.8 9.3 10 22.8 10 13.4 0 22.8-5.2 22.8-10 0-0.7 0.5-1.4 1.1-1.4 0.6 0 1.1 0.7 1.1 1.4 0 3.7-2.7 7-7.7 9.4-4.7 2.2-10.8 3.4-17.3 3.4z"/>
				<path id="&lt;Path&gt;" class="s0" d="m80.8 118.6c-6.5 0-12.7-1.2-17.3-3.4-5-2.4-7.8-5.7-7.8-9.4v-47c0-0.7 0.5-1.4 1.2-1.4 0.6 0 1.1 0.7 1.1 1.4v47c0 4.7 9.3 10 22.8 10 13.4 0 22.8-5.3 22.8-10v-47c0-0.7 0.5-1.4 1.1-1.4 0.6 0 1.1 0.7 1.1 1.4v47c0 3.7-2.7 7-7.7 9.4-4.7 2.2-10.8 3.4-17.3 3.4z"/>
				<path id="&lt;Path&gt;" class="s0" d="m99.1 75.9q-0.1 0-0.2 0-0.1 0-0.2-0.1-0.1-0.1-0.2-0.1-0.2-0.2-0.3-0.4 0-0.1-0.1-0.3 0-0.1 0-0.2-0.1-0.3 0-0.6c0-0.4 0.2-0.7 0.4-0.9q0.1-0.1 0.2-0.1 0.1-0.1 0.2-0.1 0.2-0.1 0.5 0 0.3 0.1 0.5 0.4 0.1 0.1 0.2 0.2 0.1 0.2 0.1 0.5 0.1 0.3 0 0.6 0 0.1 0 0.2-0.1 0.2-0.1 0.3-0.1 0.1-0.2 0.2 0 0.1-0.1 0.2-0.1 0-0.2 0.1-0.1 0.1-0.2 0.1-0.1 0-0.3 0z"/>
				<path id="&lt;Path&gt;" class="s0" d="m94.7 77.3q-0.1 0-0.2 0-0.1 0-0.2-0.1-0.1 0-0.2-0.1-0.1-0.1-0.2-0.2-0.1-0.2-0.2-0.4-0.1-0.2-0.1-0.3 0-0.1 0-0.3 0-0.1 0-0.3 0-0.1 0.1-0.2 0.1-0.3 0.2-0.5 0.1-0.1 0.2-0.2 0.1-0.1 0.2-0.1 0.1-0.1 0.2-0.1 0.2 0 0.4 0 0.1 0 0.2 0.1 0.1 0 0.2 0.1 0.2 0.2 0.3 0.4 0.1 0.1 0.1 0.3 0.1 0.1 0.1 0.2 0 0.2 0 0.3 0 0.2 0 0.3 0 0.1-0.1 0.3 0 0.1-0.1 0.2-0.1 0.2-0.3 0.4-0.1 0.1-0.2 0.1-0.1 0.1-0.2 0.1-0.1 0-0.2 0z"/>
				<path id="&lt;Path&gt;" class="s0" d="m90.2 78.8q-0.1 0-0.2-0.1-0.1 0-0.2-0.1-0.3-0.1-0.5-0.5 0-0.1-0.1-0.2 0-0.2 0-0.3-0.1-0.1-0.1-0.3 0-0.1 0.1-0.2 0-0.2 0-0.3 0.1-0.3 0.3-0.5 0-0.1 0.1-0.1 0.1-0.1 0.2-0.2 0.1 0 0.2-0.1 0.2 0 0.5 0 0.1 0.1 0.2 0.1 0.1 0.1 0.2 0.2 0 0 0.1 0.1 0.1 0.1 0.2 0.2 0 0.2 0.1 0.3 0 0.1 0 0.3 0.1 0.1 0.1 0.2 0 0.2-0.1 0.3 0 0.2 0 0.3-0.1 0.1-0.1 0.2-0.1 0.1-0.2 0.2 0 0.1-0.1 0.2-0.1 0.1-0.2 0.1-0.1 0.1-0.2 0.1-0.1 0.1-0.3 0.1z"/>
				<path id="&lt;Path&gt;" class="s0" d="m99.1 91.6q-0.1 0-0.2-0.1-0.1 0-0.2-0.1-0.1 0-0.2-0.1-0.1-0.1-0.1-0.2c-0.2-0.2-0.4-0.6-0.4-1q0-0.1 0.1-0.2 0-0.2 0-0.3 0.1-0.1 0.1-0.3 0.1-0.1 0.2-0.2 0-0.1 0.1-0.1 0.1-0.1 0.2-0.2 0.1 0 0.2-0.1 0.2 0 0.5 0 0.2 0.1 0.4 0.3 0.1 0 0.1 0.1 0.1 0.1 0.2 0.2 0 0.2 0.1 0.3 0 0.1 0 0.3 0.1 0.1 0.1 0.2c0 0.4-0.2 0.8-0.4 1q0 0.1-0.1 0.2-0.2 0.2-0.4 0.2-0.1 0.1-0.3 0.1z"/>
				<path id="&lt;Path&gt;" class="s0" d="m94.7 93q-0.1 0-0.2 0-0.1-0.1-0.2-0.1-0.1-0.1-0.2-0.2-0.1 0-0.2-0.1-0.1-0.1-0.1-0.2-0.1-0.2-0.1-0.3-0.1-0.1-0.1-0.3 0-0.2 0-0.5 0-0.1 0.1-0.3 0-0.1 0.1-0.2 0-0.1 0.1-0.2 0.1-0.1 0.2-0.2 0.1-0.1 0.2-0.1 0.1-0.1 0.2-0.1 0.2-0.1 0.4 0 0.1 0 0.2 0.1 0.1 0 0.2 0.1 0.1 0.1 0.2 0.2 0.1 0.1 0.1 0.2 0.1 0.1 0.1 0.2 0.1 0.1 0.1 0.3 0 0.3 0 0.5 0 0.2-0.1 0.3 0 0.1-0.1 0.3 0 0.1-0.1 0.2-0.1 0.1-0.2 0.1-0.1 0.1-0.2 0.2-0.1 0-0.2 0.1-0.1 0-0.2 0z"/>
				<path id="&lt;Path&gt;" class="s0" d="m90.2 94.4q-0.1 0-0.2 0-0.1-0.1-0.2-0.1-0.2-0.1-0.3-0.3-0.2-0.2-0.3-0.5 0-0.1 0-0.2-0.1-0.2-0.1-0.3c0-0.4 0.1-0.7 0.4-1q0-0.1 0.1-0.2 0.1-0.1 0.2-0.1 0.1-0.1 0.2-0.1c0.5-0.1 0.9 0.1 1.2 0.6q0 0.1 0.1 0.2 0 0.2 0 0.3 0.1 0.3 0 0.6 0 0.1 0 0.2-0.1 0.2-0.1 0.3-0.2 0.2-0.3 0.4-0.1 0-0.2 0.1-0.1 0-0.2 0.1-0.1 0-0.3 0z"/>
				<path id="&lt;Path&gt;" class="s0" d="m99.1 107.2q-0.1 0-0.2 0-0.1 0-0.2-0.1-0.1-0.1-0.2-0.1-0.1-0.1-0.1-0.2-0.1-0.1-0.2-0.2 0-0.1-0.1-0.3 0-0.1 0-0.2-0.1-0.2-0.1-0.3 0-0.2 0.1-0.3 0-0.1 0-0.3 0.1-0.1 0.1-0.2 0.1-0.2 0.3-0.4 0.1-0.1 0.2-0.1 0.1-0.1 0.2-0.1 0.2-0.1 0.5 0 0.1 0 0.2 0.1 0.1 0 0.2 0.1 0.1 0.1 0.1 0.2 0.1 0.1 0.2 0.2 0 0.1 0.1 0.2 0 0.2 0 0.3 0.1 0.1 0.1 0.3 0 0.1-0.1 0.3 0 0.1 0 0.2c-0.2 0.5-0.5 0.8-0.8 0.9q-0.1 0-0.3 0z"/>
				<path id="&lt;Path&gt;" class="s0" d="m94.7 108.6q-0.1 0-0.2 0-0.1 0-0.2-0.1-0.1 0-0.2-0.1-0.2-0.2-0.3-0.4-0.1-0.1-0.1-0.2-0.1-0.2-0.1-0.3 0-0.1 0-0.3 0-0.1 0-0.3 0-0.1 0.1-0.2 0-0.2 0.1-0.3 0-0.1 0.1-0.2 0.1-0.1 0.2-0.2 0.1 0 0.2-0.1 0.1-0.1 0.2-0.1 0.2 0 0.4 0 0.1 0 0.2 0.1 0.1 0.1 0.2 0.1 0.1 0.1 0.2 0.2 0.1 0.1 0.1 0.2 0.1 0.1 0.1 0.3 0.1 0.1 0.1 0.2 0 0.2 0 0.3 0 0.2 0 0.3 0 0.1-0.1 0.3 0 0.1-0.1 0.2 0 0.1-0.1 0.2-0.1 0.1-0.2 0.2-0.1 0.1-0.2 0.1-0.1 0.1-0.2 0.1-0.1 0-0.2 0z"/>
				<path id="&lt;Path&gt;" class="s0" d="m90.2 110.1q-0.1 0-0.2-0.1-0.1 0-0.2-0.1c-0.4-0.2-0.7-0.7-0.7-1.3q0-0.1 0.1-0.2 0-0.2 0-0.3 0.1-0.3 0.3-0.5 0.1-0.2 0.3-0.3 0.1 0 0.2-0.1 0.2 0 0.5 0 0.1 0.1 0.2 0.1 0.1 0.1 0.2 0.2 0.1 0.1 0.3 0.3 0 0.2 0.1 0.3 0 0.1 0 0.3 0 0.1 0 0.2c0 0.5-0.1 1-0.4 1.2q-0.1 0.1-0.2 0.1-0.1 0.1-0.2 0.1-0.1 0.1-0.3 0.1z"/>
			</g>
		</g>
		<path id="&lt;Compound Path&gt;" fill-rule="evenodd" class="s1" d="m160.7 80.8c0 44.1-35.8 80-79.9 80-44.1 0-80-35.9-80-80 0-44.1 35.9-80 80-80 44.1 0 79.9 35.9 79.9 80zm-131.6-48.5l108.6 90.8c8.8-11.8 14-26.5 14-42.3 0-39.1-31.8-70.9-70.9-70.9-20.4 0-38.7 8.6-51.7 22.4zm102.7 97.7l-108.5-90.7c-8.4 11.7-13.4 26-13.4 41.5 0 39.1 31.8 70.9 70.9 70.9 20 0 38.1-8.3 51-21.7z"/>
	</g>
</svg>