<svg version="1.2" xmlns="http://www.w3.org/2000/svg" viewBox="0 0 161 161" width="190" height="190">
	<title>&lt;Group&gt;</title>
	<style>
		.s0 { fill: none;stroke: #ffffff;stroke-linecap: round;stroke-linejoin: round;stroke-width: 2.5 } 
		.s1 { opacity: .7;fill: #66d8b5 } 
	</style>
	<g id="&lt;Group&gt;">
		<g id="&lt;Group&gt;">
			<g id="&lt;Group&gt;">
				<path id="&lt;Compound Path&gt;" class="s0" d="m52.3 106.6l4.1 2.3c0.4 0.2 0.9 0.8 1 1.3l1.3 6.4c0.1 0.5 0.6 0.9 1.1 0.9h7.4c0.5 0 1-0.4 1.1-0.9l1.3-6.4c0.1-0.5 0.6-1.1 1.1-1.3l4-2.3c0.4-0.3 1.2-0.4 1.7-0.3l6.1 2c0.5 0.2 1.1 0 1.4-0.5l3.6-6.3c0.3-0.5 0.2-1.1-0.2-1.4l-4.8-4.4c-0.4-0.3-0.7-1-0.6-1.5v-4.7c-0.1-0.5 0.2-1.2 0.6-1.5l4.8-4.4c0.4-0.3 0.5-0.9 0.2-1.4l-3.6-6.4c-0.3-0.4-0.9-0.6-1.4-0.5l-6.1 2.1c-0.5 0.1-1.3 0-1.7-0.3l-4-2.3c-0.5-0.2-1-0.8-1.1-1.3l-1.3-6.4c-0.1-0.5-0.6-0.9-1.1-0.9h-7.4c-0.5 0-1 0.4-1.1 0.9l-1.3 6.4c-0.1 0.5-0.6 1.1-1 1.3l-4.1 2.3c-0.4 0.3-1.2 0.4-1.6 0.3l-6.2-2c-0.5-0.2-1.1 0-1.3 0.5l-3.7 6.3c-0.3 0.4-0.2 1.1 0.2 1.4l4.8 4.4c0.4 0.3 0.7 1 0.7 1.5v4.7c0 0.5-0.3 1.2-0.7 1.5l-4.8 4.4c-0.4 0.3-0.5 0.9-0.2 1.4l3.7 6.3"/>
				<path id="&lt;Path&gt;" class="s0" d="m72.9 91.7c0 5.2-4.2 9.4-9.4 9.4-5.2 0-9.4-4.2-9.4-9.4 0-5.2 4.2-9.4 9.4-9.4"/>
			</g>
			<g id="&lt;Group&gt;">
				<path id="&lt;Compound Path&gt;" class="s0" d="m106.2 49.7c-0.4 0.1-1-0.2-1.3-0.5l-4-4.8c-0.3-0.3-0.8-0.4-1.2-0.2l-5.6 3.3c-0.4 0.2-0.6 0.7-0.5 1.2l2.2 5.8c0.1 0.4 0 1-0.2 1.4l-2 3.5c-0.2 0.4-0.7 0.8-1.2 0.9l-6.1 1c-0.4 0.1-0.8 0.5-0.8 1v6.5c0 0.5 0.4 0.9 0.8 1l6.1 1c0.5 0.1 1 0.5 1.2 0.9l2 3.5c0.2 0.4 0.3 1 0.2 1.4l-2.2 5.8c-0.1 0.5 0.1 1 0.5 1.2l5.6 3.3c0.4 0.2 1 0.1 1.3-0.2l3.9-4.8c0.3-0.3 0.9-0.6 1.3-0.5h4.1c0.4-0.1 1 0.2 1.3 0.5l4 4.8c0.3 0.3 0.8 0.4 1.2 0.2l5.7-3.3c0.3-0.2 0.5-0.7 0.4-1.2l-2.2-5.8c-0.1-0.4 0-1 0.2-1.4l2.1-3.5c0.1-0.4 0.6-0.8 1.1-0.9l6.1-1c0.4-0.1 0.8-0.5 0.8-1v-6.5c0-0.5-0.4-0.9-0.8-1l-6.1-1c-0.5-0.1-1-0.5-1.2-0.9l-2-3.5c-0.2-0.4-0.3-1-0.2-1.4l2.2-5.8c0.1-0.5-0.1-1-0.5-1.2l-5.6-3.3c-0.4-0.2-1-0.1-1.2 0.2"/>
				<path id="&lt;Path&gt;" class="s0" d="m116.3 65.6c0 4.4-3.6 8.1-8.1 8.1-4.4 0-8.1-3.7-8.1-8.1 0-4.5 3.7-8.1 8.1-8.1"/>
			</g>
		</g>
		<path id="&lt;Compound Path&gt;" fill-rule="evenodd" class="s1" d="m160.9 80.8c0 44.1-35.9 80-80 80-44.1 0-80-35.9-80-80 0-44.1 35.9-80 80-80 44.1 0 80 35.9 80 80zm-131.7-48.5l108.6 90.8c8.8-11.8 14-26.5 14-42.3 0-39.1-31.8-70.9-70.9-70.9-20.4 0-38.7 8.6-51.7 22.4zm102.7 97.7l-108.5-90.7c-8.4 11.7-13.4 26-13.4 41.5 0 39.1 31.8 70.9 70.9 70.9 20 0 38.1-8.3 51-21.7z"/>
	</g>
</svg>