<svg version="1.2" xmlns="http://www.w3.org/2000/svg" viewBox="0 0 161 161" width="190" height="190">
	<title>Folder 1</title>
	<style>
		.s0 { fill: #ffffff } 
		.s1 { opacity: .7;fill: #66d8b5 } 
	</style>
	<g id="Folder 1">
		<g id="&lt;Group&gt;">
			<g id="&lt;Group&gt;">
				<g id="&lt;Group&gt;">
					<path id="&lt;Compound Path&gt;" fill-rule="evenodd" class="s0" d="m101.9 60.8v10.6c0 0.7-0.6 1.3-1.3 1.3h-7.3c-0.7 0-1.3-0.6-1.3-1.3v-10.6c0-6.5-5.3-11.8-11.8-11.8-6.5 0-11.7 5.3-11.7 11.8v10.6c0 0.7-0.6 1.3-1.3 1.3h-7.3c-0.7 0-1.3-0.6-1.3-1.3v-10.6c0-11.9 9.7-21.7 21.6-21.7 12 0 21.7 9.8 21.7 21.7zm-2.6 9.3v-9.3c0-10.5-8.5-19-19.1-19-10.5 0-19 8.5-19 19v9.3h4.6v-9.3c0-7.9 6.5-14.4 14.4-14.4 8 0 14.4 6.5 14.4 14.4v9.3z"/>
				</g>
			</g>
			<g id="&lt;Group&gt;">
				<g id="&lt;Group&gt;">
					<path id="&lt;Compound Path&gt;" fill-rule="evenodd" class="s0" d="m109.2 75.7v35.2c0 3.1-2.5 5.6-5.6 5.6h-46.7c-3.1 0-5.6-2.5-5.6-5.6v-35.2c0-3.1 2.5-5.6 5.6-5.6h46.7c3.1 0 5.6 2.5 5.6 5.6zm-2.6 0c0-1.6-1.3-3-3-3h-46.7c-1.7 0-3 1.4-3 3v35.2c0 1.7 1.3 3 3 3h46.7c1.7 0 3-1.3 3-3z"/>
				</g>
			</g>
			<g id="&lt;Group&gt;">
				<g id="&lt;Group&gt;">
					<path id="&lt;Compound Path&gt;" fill-rule="evenodd" class="s0" d="m86.1 102c0.1 0.4 0 0.8-0.2 1.1-0.3 0.3-0.7 0.5-1.1 0.5h-9.1c-0.4 0-0.8-0.2-1.1-0.5-0.2-0.3-0.3-0.7-0.2-1.1l1.4-7c-1.5-1.3-2.4-3.1-2.4-5.2 0-3.7 3.1-6.8 6.8-6.8 3.8 0 6.9 3.1 6.9 6.8 0 2.1-0.9 3.9-2.5 5.2zm-1.6-12.2c0-2.3-1.9-4.2-4.2-4.2-2.3 0-4.2 1.9-4.2 4.2 0 1.5 0.7 2.8 1.9 3.6 0.5 0.3 0.7 0.8 0.6 1.3l-1.3 6.3h6l-1.4-6.3c-0.1-0.5 0.2-1 0.6-1.3 1.2-0.8 2-2.1 2-3.6z"/>
				</g>
			</g>
		</g>
		<path id="&lt;Compound Path&gt;" fill-rule="evenodd" class="s1" d="m160.2 80.8c0 44.1-35.9 80-80 80-44 0-79.9-35.9-79.9-80 0-44.1 35.9-80 79.9-80 44.1 0 80 35.9 80 80zm-131.6-48.5l108.5 90.8c8.8-11.8 14-26.5 14-42.3 0-39.1-31.8-70.9-70.9-70.9-20.3 0-38.7 8.6-51.6 22.4zm102.7 97.7l-108.5-90.7c-8.5 11.7-13.5 26-13.5 41.5 0 39.1 31.9 70.9 70.9 70.9 20.1 0 38.1-8.3 51.1-21.7z"/>
	</g>
</svg>