<svg version="1.2" xmlns="http://www.w3.org/2000/svg" viewBox="0 0 161 161" width="190" height="190">
	<title>&lt;Compound Path&gt;</title>
	<style>
		.s0 { fill: #ffffff } 
		.s1 { opacity: .7;fill: #66d8b5 } 
	</style>
	<g id="&lt;Group&gt;">
		<path id="&lt;Compound Path&gt;" fill-rule="evenodd" class="s0" d="m89.1 88.9q0.2 0 0.5 0.1 1-0.1 2.1 0c0.9 0 1.4 0.8 1.1 1.6q-0.2 0.6-0.9 0.7-0.3 0.1-0.6 0.1-16.7 0-33.4 0-9.9 0-19.7 0-0.3 0-0.7 0c0 1.5 0 2.9 0 4.5q0.4 0 0.6 0 17.4 0 34.7 0 7.9 0 15.9-0.1 0.3 0 0.5 0.1c0.7 0 1.2 0.4 1.2 1.1 0 0.7-0.4 1.2-1.1 1.2q-0.2 0.1-0.5 0.1-7.3-0.1-14.7-0.1-14.1 0.1-28.3 0.1-0.2 0-0.6 0 0 0.3 0 0.7 0 7.6 0 15.3 0 0.3 0 0.5c-0.2 0.9-1.1 1.4-1.9 0.9q-0.4-0.3-0.5-0.8 0-0.2 0-0.5 0-4.9 0-9.9 0-2.8 0-5.7 0-0.2-0.1-0.5-0.3 0-0.5 0-2.9 0-5.7 0c-0.3 0-0.6-0.1-0.8-0.2-0.4-0.2-0.6-0.6-0.6-1.1q0-2.1 0-4.2c0-0.8 0-1.7 0-2.6-0.1-0.6 0.5-1.3 1.2-1.2q0.5 0 1 0 9.3 0 18.6 0 8.4 0 16.7 0 0.3 0 0.5 0c0.1-0.3-0.1-0.4-0.3-0.4q-2.8-2.2-4.2-5.5-1.2-2.8-1-5.8c0.3-5.2 2.8-9 7.2-11.5 2.4-1.3 5-1.7 7.7-1.4 5.4 0.5 10 4.4 11.6 9.5 1.5 5.2-0.1 10.8-4.4 14.4q-0.3 0.2-0.6 0.5 0 0.1 0 0.1zm-19.1-11.1c0 6.1 4.8 10.9 10.7 11.1 6.2 0.3 11.2-4.6 11.5-10.3 0.4-6.4-4.5-11.8-10.9-11.9-6.1-0.1-11.2 4.7-11.3 11.1z"/>
		<path id="&lt;Compound Path&gt;" fill-rule="evenodd" class="s0" d="m80.4 38.3q6.4 0 12.8 0c1.2 0 2.2 0.4 3.1 1.3q1 1.1 1 2.6c0.1 0.7 0.3 0.9 1 1 2 0.1 3 1.8 3 3.2-0.1 0.8 0 1.7 0 2.6-0.1 1.6-1.2 2.9-2.8 3.1-1 0.1-1.1 0.2-1.2 1.2-0.1 1.7-1.6 3.4-3.3 3.6-1 0.1-1.9 0-2.9 0q-1.4 0-2.8 0-10.3 0-20.6 0c-0.7 0-1.4-0.1-2.1-0.4q-2-1.1-2.2-3.4 0-0.1 0-0.3 0-5.2 0-10.3 0-2 1.5-3.3c0.8-0.6 1.7-0.9 2.7-0.9q3.9 0 7.8 0 2.5 0 5 0 0 0 0 0zm17 7.2q0 0.3-0.1 0.5 0.1 0.7 0 1.3c0 0.9-1 1.4-1.7 1-0.4-0.3-0.6-0.7-0.6-1.1q0-2.3 0-4.6c0-0.3 0-0.7-0.2-0.9-0.3-0.7-0.9-1-1.6-1q-12.8 0-25.6 0-0.1 0-0.2 0c-0.3 0.1-0.6 0.1-0.8 0.3-0.7 0.3-0.9 1-0.9 1.7q0 4.9 0 9.8 0 0.2 0 0.3c0.1 1.1 0.8 1.8 1.9 1.8q0.5 0 1.1 0 9.3 0 18.6 0 3 0 6 0c0.9 0 1.7-0.7 1.7-1.7q0.1-0.4 0-0.9 0-0.7 0.1-1.4c0-0.8 0.7-1.3 1.4-1 0.7 0.2 0.8 0.2 1.4 0.2q0.1 0 0.2 0c0.5-0.1 0.8-0.3 0.8-0.8q0.1-1.4 0-2.8c0-0.4-0.3-0.6-0.7-0.7-0.2 0-0.5 0-0.8 0z"/>
		<path id="&lt;Path&gt;" class="s0" d="m101.1 84c-0.2-0.2-0.3-0.3-0.4-0.4q-0.8-0.5-1.6-1.1-0.6-0.4-0.4-1.2c0.1-0.5 0.4-0.8 0.9-0.9 0.4 0 0.7 0.1 0.9 0.3q0.9 0.6 1.8 1.2 0.2 0.1 0.5 0.2 0.2-0.1 0.4-0.2c0.5-0.3 1.1-0.2 1.4 0.2 0.4 0.5 0.5 1 0.1 1.5q-0.1 0.2-0.3 0.3-2.9 3.2-5.9 6.3c-1.3 1.4-1.6 3.3-0.8 4.9 0.8 1.6 2.5 2.6 4.3 2.4q1.6-0.1 2.7-1.3 4.4-4.6 8.7-9.2c1.9-2 1.6-5-0.6-6.5-2-1.4-4-2.7-6.1-4.1q-2.9-2-5.9-3.9-0.4-0.3-0.7-0.4-1.8-0.4-3.6-0.8c-0.6-0.1-1-0.6-1-1.2 0-0.8 0.7-1.3 1.5-1.1 1.1 0.2 2.2 0.5 3.3 0.7 0.8 0.2 1.5 0.5 2.2 1q5.7 3.8 11.4 7.7c1.6 1 2.6 2.5 3 4.3 0.4 2.2-0.2 4.2-1.7 5.8q-4.4 4.8-8.9 9.4c-1.8 1.9-4.1 2.5-6.7 1.7-2.4-0.7-4-2.4-4.5-4.9-0.5-2.2 0-4.2 1.5-5.9 1.4-1.5 2.8-3 4.1-4.4 0.1-0.1 0.3-0.3 0.4-0.4z"/>
		<path id="&lt;Path&gt;" class="s0" d="m54.8 77.2q0.2 0 0.5 0 1.7 0 3.4 0c3 0.1 5.5 1.9 6.5 4.7q0.8 2.5-0.3 5c-0.3 0.6-1 0.9-1.6 0.6-0.6-0.2-0.9-0.8-0.7-1.4 0.2-0.4 0.3-0.8 0.4-1.2 0.5-2.4-1.2-5.2-4.2-5.3-1.2 0-2.4 0-3.5 0-1.2 0.1-2.3 0.1-3.5 0.1-1.4-0.1-3.5 1-4 3.2q-0.4 1.3 0.1 2.6c0.2 0.7 0 1.3-0.5 1.6-0.7 0.4-1.5 0.1-1.7-0.6-0.2-0.6-0.4-1.2-0.5-1.8-0.3-3.3 1.7-5.9 4.2-7 0.5-0.2 0.9-0.5 1.3-0.8q4.8-3.2 9.5-6.5c0.7-0.4 1.3-0.5 2-0.7q1.6-0.4 3.1-0.7c0.6-0.2 1.1 0 1.4 0.5 0.4 0.7 0.1 1.6-0.8 1.8q-0.7 0.2-1.3 0.3-1.2 0.3-2.4 0.6-0.3 0-0.6 0.2-3.1 2.2-6.3 4.3-0.3 0.2-0.5 0.4 0 0.1 0 0.1z"/>
		<path id="&lt;Path&gt;" class="s0" d="m116.9 98.3q-0.5 0-0.9 0-1.4 0-2.8 0c-0.8-0.1-1.4-0.6-1.3-1.4 0.1-0.6 0.5-1 1.1-1q0.2-0.1 0.5-0.1 5.2 0.1 10.4 0.1 0.3 0 0.7 0 0-0.3 0-0.5 0.1-1.8 0-3.5c0-0.5 0-0.5-0.5-0.5q-2.5 0-5.1 0-0.4 0-0.8-0.1c-0.5 0-1-0.4-1-1-0.1-0.5 0.2-1.1 0.7-1.3q0.3 0 0.6 0 3.6 0 7.2 0 0.1 0 0.2 0c0.7 0 1.1 0.5 1.1 1.2q0.1 1.1 0 2.3 0 2.2 0 4.4 0 1.4-1.4 1.4-2.8 0-5.6 0-0.3 0-0.6 0-0.1 0.3-0.1 0.6 0 4.5 0 9.1 0 3.3 0 6.6c0 0.4-0.1 0.8-0.5 1.1-0.7 0.5-1.7 0.1-1.9-0.9q0-0.1 0-0.2 0-3.7 0-7.3 0-4.3 0-8.6c0-0.1 0-0.2 0-0.4z"/>
		<path id="&lt;Compound Path&gt;" fill-rule="evenodd" class="s0" d="m67.6 47.6q0-1.3 0-2.5c0.1-1.5 1.1-2.5 2.6-2.5q0.7-0.1 1.4 0c1.5 0 2.5 1.1 2.5 2.5q0 2.5 0 5c0 1.4-0.9 2.4-2.2 2.6q-1.1 0.1-2.2-0.1c-1.2-0.1-2-1.1-2.1-2.4q0-1.3 0-2.6zm4.1 2.7c0.1-0.8 0.1-5-0.1-5.4q-0.7 0-1.6 0 0 0.4 0 0.7 0 2.1 0 4.2c0 0.2 0 0.4 0 0.5 0.6 0 1.1 0 1.7 0z"/>
	</g>
	<path id="&lt;Compound Path&gt;" fill-rule="evenodd" class="s1" d="m160.2 80.8c0 44.1-35.8 80-79.9 80-44.1 0-80-35.9-80-80 0-44.1 35.9-80 80-80 44.1 0 79.9 35.9 79.9 80zm-131.6-48.5l108.5 90.8c8.9-11.8 14.1-26.5 14.1-42.3 0-39.1-31.8-70.9-70.9-70.9-20.4 0-38.8 8.6-51.7 22.4zm102.7 97.7l-108.5-90.7c-8.4 11.7-13.4 26-13.4 41.5 0 39.1 31.8 70.9 70.9 70.9 20 0 38.1-8.3 51-21.7z"/>
</svg>