<svg version="1.2" xmlns="http://www.w3.org/2000/svg" viewBox="0 0 161 161" width="190" height="190">
	<title>&lt;Compound Path&gt;</title>
	<style>
		.s0 { fill: #ffffff } 
		.s1 { opacity: .7;fill: #66d8b5 } 
	</style>
	<g id="&lt;Group&gt;">
		<path id="&lt;Compound Path&gt;" fill-rule="evenodd" class="s0" d="m65.4 75.3c-4.4-4.4-6.8-10.2-6.8-16.4 0-6.1 2.4-11.9 6.8-16.3 4.3-4.4 10.2-6.8 16.3-6.8 6.2 0 12 2.4 16.4 6.8 4.4 4.4 6.8 10.2 6.8 16.3 0 6.2-2.4 12-6.8 16.4-4.4 4.4-10.2 6.8-16.4 6.8-6.1 0-12-2.4-16.3-6.8zm16.3-36.6c-11.1 0-20.2 9.1-20.2 20.2 0 11.2 9.1 20.3 20.2 20.3 11.2 0 20.3-9.1 20.3-20.3 0-11.1-9.1-20.2-20.3-20.2z"/>
		<path id="&lt;Path&gt;" class="s0" d="m81.7 57.5c-2 0-3.6-1.6-3.6-3.6 0-2 1.6-3.6 3.6-3.6 2 0 3.7 1.6 3.7 3.6 0 0.8 0.6 1.4 1.4 1.4 0.8 0 1.4-0.6 1.4-1.4 0-3.1-2.1-5.7-5-6.4v-1.6c0-0.8-0.7-1.4-1.5-1.4-0.8 0-1.4 0.6-1.4 1.4v1.6c-2.9 0.7-5.1 3.3-5.1 6.4 0 3.6 2.9 6.5 6.5 6.5 2 0 3.7 1.6 3.7 3.6 0 2-1.7 3.6-3.7 3.6-2 0-3.6-1.6-3.6-3.6 0-0.8-0.6-1.4-1.4-1.4-0.8 0-1.5 0.6-1.5 1.4 0 3.1 2.2 5.7 5.1 6.3v1.7c0 0.7 0.6 1.4 1.4 1.4 0.8 0 1.5-0.7 1.5-1.4v-1.7c2.9-0.6 5-3.2 5-6.3 0-3.6-2.9-6.5-6.5-6.5z"/>
	</g>
	<g id="&lt;Group&gt;">
		<g id="&lt;Group&gt;">
			<g id="&lt;Group&gt;">
				<path id="&lt;Path&gt;" class="s0" d="m88.7 111.8l-6.1-4.5v-9.3c0-0.9-0.8-1.7-1.7-1.7-0.9 0-1.7 0.8-1.7 1.7v10.1c0 0.5 0.3 1 0.7 1.3l6.7 5.1q0.5 0.3 1 0.3c0.6 0 1.1-0.2 1.4-0.6 0.5-0.8 0.4-1.8-0.3-2.4z"/>
			</g>
		</g>
		<g id="&lt;Group&gt;">
			<g id="&lt;Group&gt;">
				<path id="&lt;Compound Path&gt;" fill-rule="evenodd" class="s0" d="m102.6 108c0 12-9.7 21.7-21.7 21.7-12 0-21.7-9.7-21.7-21.7 0-12 9.7-21.8 21.7-21.8 12 0 21.7 9.8 21.7 21.8zm-3.3 0c0-10.2-8.3-18.4-18.4-18.4-10.1 0-18.4 8.2-18.4 18.4 0 10.1 8.3 18.3 18.4 18.3 10.1 0 18.4-8.2 18.4-18.3z"/>
			</g>
		</g>
	</g>
	<path id="&lt;Compound Path&gt;" fill-rule="evenodd" class="s1" d="m160.9 80.8c0 44.1-35.9 80-80 80-44.1 0-80-35.9-80-80 0-44.1 35.9-80 80-80 44.1 0 80 35.9 80 80zm-131.7-48.5l108.6 90.8c8.8-11.8 14-26.5 14-42.3 0-39.1-31.8-70.9-70.9-70.9-20.3 0-38.7 8.6-51.7 22.4zm102.7 97.7l-108.4-90.7c-8.5 11.7-13.5 26-13.5 41.5 0 39.1 31.8 70.9 70.9 70.9 20 0 38.1-8.3 51-21.7z"/>
</svg>