<svg version="1.2" xmlns="http://www.w3.org/2000/svg" viewBox="0 0 318 673" width="318" height="673">
	<title>Folder 1</title>
	<style>
		tspan { white-space:pre } 
		.s0 { fill: none;stroke: #66d8b5;stroke-miterlimit:10;stroke-width: 2.1 } 
		.s1 { fill: #66d8b5 } 
		.s2 { fill: none;stroke: #ffffff;stroke-miterlimit:10;stroke-width: 2.1 } 
		.s3 { fill: #ffffff } 
		.s4 { fill: none;stroke: #66d8b5;stroke-miterlimit:10;stroke-width: 1.9 } 
		.s5 { fill: none;stroke: #ffffff;stroke-miterlimit:10;stroke-width: 1.9 } 
		.t6 { font-size: 15px;fill: #ffffff;font-weight: 700;font-family: "Inter-Bold", "Inter" } 
		.t7 { font-size: 15px;fill: #66d8b5;font-weight: 700;font-family: "Inter-Bold", "Inter" } 
	</style>
	<g id="Folder 1">
		<g id="&lt;Group&gt;">
			<g id="&lt;Group&gt;">
				<path id="&lt;Path&gt;" class="s0" d="m62.5 215.1h29.3l22.3-142.6"/>
			</g>
			<g id="&lt;Group&gt;">
				<path id="&lt;Path&gt;" class="s1" d="m114.1 72.1l-4.6-0.9 3.1-3.6 3.1-3.5 1.5 4.4 1.6 4.5z"/>
			</g>
			<g id="&lt;Group&gt;">
				<path id="&lt;Path&gt;" class="s2" d="m131.7 51.9c0 5.6-4.6 10.2-10.3 10.2-5.6 0-10.2-4.6-10.2-10.2 0-5.7 4.6-10.3 10.2-10.3 5.7 0 10.3 4.6 10.3 10.3z"/>
			</g>
			<g id="&lt;Group&gt;">
				<path id="&lt;Path&gt;" class="s0" d="m166.6 133.5c0 5.7-4.6 10.3-10.2 10.3-5.7 0-10.3-4.6-10.3-10.3 0-5.6 4.6-10.2 10.3-10.2 5.6 0 10.2 4.6 10.2 10.2z"/>
			</g>
			<g id="&lt;Group&gt;">
				<path id="&lt;Path&gt;" class="s0" d="m163.7 267.1c0 5.6-4.5 10.2-10.2 10.2-5.7 0-10.2-4.6-10.2-10.2 0-5.7 4.5-10.3 10.2-10.3 5.7 0 10.2 4.6 10.2 10.3z"/>
			</g>
			<g id="&lt;Group&gt;">
				<path id="&lt;Path&gt;" class="s0" d="m277.2 322.7c0 5.7-4.6 10.3-10.3 10.3-5.6 0-10.2-4.6-10.2-10.3 0-5.6 4.6-10.2 10.2-10.2 5.7 0 10.3 4.6 10.3 10.2z"/>
			</g>
			<g id="&lt;Group&gt;">
				<path id="&lt;Path&gt;" class="s2" d="m187.1 322.7c0 5.7-4.6 10.3-10.3 10.3-5.6 0-10.2-4.6-10.2-10.3 0-5.6 4.6-10.2 10.2-10.2 5.7 0 10.3 4.6 10.3 10.2z"/>
			</g>
			<g id="&lt;Group&gt;">
				<path id="&lt;Path&gt;" class="s0" d="m159.4 364c0 5.6-4.6 10.2-10.3 10.2-5.6 0-10.2-4.6-10.2-10.2 0-5.7 4.6-10.3 10.2-10.3 5.7 0 10.3 4.6 10.3 10.3z"/>
			</g>
			<g id="&lt;Group&gt;">
				<path id="&lt;Path&gt;" class="s0" d="m191.2 91.8c0 5.7-4.5 10.3-10.2 10.3-5.7 0-10.2-4.6-10.2-10.3 0-5.6 4.5-10.2 10.2-10.2 5.7 0 10.2 4.6 10.2 10.2z"/>
			</g>
			<g id="&lt;Group&gt;">
				<path id="&lt;Path&gt;" class="s0" d="m218.4 133.5c0 5.7-4.6 10.3-10.2 10.3-5.7 0-10.3-4.6-10.3-10.3 0-5.6 4.6-10.2 10.3-10.2 5.6 0 10.2 4.6 10.2 10.2z"/>
			</g>
			<g id="&lt;Group&gt;">
				<path id="&lt;Path&gt;" class="s0" d="m277.2 170.1c0 5.7-4.6 10.3-10.3 10.3-5.6 0-10.2-4.6-10.2-10.3 0-5.6 4.6-10.2 10.2-10.2 5.7 0 10.3 4.6 10.3 10.2z"/>
			</g>
			<g id="&lt;Group&gt;">
				<path id="&lt;Path&gt;" class="s0" d="m235 177.8c0 5.7-4.6 10.3-10.2 10.3-5.7 0-10.3-4.6-10.3-10.3 0-5.6 4.6-10.2 10.3-10.2 5.6 0 10.2 4.6 10.2 10.2z"/>
			</g>
			<g id="&lt;Group&gt;">
				<path id="&lt;Path&gt;" class="s0" d="m266.9 58.3c0 5.7-4.6 10.2-10.2 10.2-5.7 0-10.3-4.5-10.3-10.2 0-5.7 4.6-10.2 10.3-10.2 5.6 0 10.2 4.5 10.2 10.2z"/>
			</g>
			<g id="&lt;Group&gt;" style="opacity: .4">
				<path id="&lt;Path&gt;" class="s0" d="m191.2 12.8c0 5.6-4.5 10.2-10.2 10.2-5.7 0-10.2-4.6-10.2-10.2 0-5.7 4.5-10.3 10.2-10.3 5.7 0 10.2 4.6 10.2 10.3z"/>
			</g>
			<g id="&lt;Group&gt;" style="opacity: .4">
				<path id="&lt;Path&gt;" class="s0" d="m111.7 12.8c0 5.6-4.5 10.2-10.2 10.2-5.7 0-10.2-4.6-10.2-10.2 0-5.7 4.5-10.3 10.2-10.3 5.7 0 10.2 4.6 10.2 10.3z"/>
			</g>
			<g id="&lt;Group&gt;" style="opacity: .4">
				<path id="&lt;Path&gt;" class="s0" d="m166.6 170.1c0 5.7-4.6 10.3-10.2 10.3-5.7 0-10.3-4.6-10.3-10.3 0-5.6 4.6-10.2 10.3-10.2 5.6 0 10.2 4.6 10.2 10.2z"/>
			</g>
			<g id="&lt;Group&gt;" style="opacity: .4">
				<path id="&lt;Path&gt;" class="s0" d="m256.7 269.8c0 5.7-4.6 10.2-10.3 10.2-5.6 0-10.2-4.5-10.2-10.2 0-5.7 4.6-10.2 10.2-10.2 5.7 0 10.3 4.5 10.3 10.2z"/>
			</g>
			<g id="&lt;Group&gt;" style="opacity: .4">
				<path id="&lt;Path&gt;" class="s0" d="m235 349.1c0 5.7-4.6 10.3-10.2 10.3-5.7 0-10.3-4.6-10.3-10.3 0-5.6 4.6-10.2 10.3-10.2 5.6 0 10.2 4.6 10.2 10.2z"/>
			</g>
			<g id="&lt;Group&gt;" style="opacity: .4">
				<path id="&lt;Path&gt;" class="s0" d="m111.7 338.9c0 5.6-4.5 10.2-10.2 10.2-5.7 0-10.2-4.6-10.2-10.2 0-5.7 4.5-10.3 10.2-10.3 5.7 0 10.2 4.6 10.2 10.3z"/>
			</g>
			<g id="&lt;Group&gt;">
				<g id="&lt;Group&gt;">
					<path id="&lt;Path&gt;" class="s0" d="m91.8 215.1l68.6 95.4"/>
					<g id="&lt;Group&gt;">
						<path id="&lt;Path&gt;" class="s1" d="m155.2 312.3l9.7 4.4-1.1-10.6z"/>
					</g>
				</g>
			</g>
			<g id="&lt;Group&gt;" style="opacity: .4">
				<g id="&lt;Group&gt;">
					<path id="&lt;Path&gt;" class="s0" d="m111.7 338.9l45.4-8.8"/>
					<g id="&lt;Group&gt;">
						<path id="&lt;Path&gt;" class="s1" d="m156.6 335.6l8-7-10-3.4z"/>
					</g>
				</g>
			</g>
			<g id="&lt;Group&gt;">
				<g id="&lt;Group&gt;">
					<path id="&lt;Path&gt;" class="s2" d="m172.2 331.9l-10.8 15.6"/>
					<g id="&lt;Group&gt;">
						<path id="&lt;Path&gt;" class="s3" d="m157.9 343.1l-0.9 10.6 9.6-4.5z"/>
					</g>
				</g>
			</g>
			<g id="&lt;Group&gt;">
				<g id="&lt;Group&gt;">
					<path id="&lt;Path&gt;" class="s2" d="m171.6 313.9l-11-26.8"/>
					<g id="&lt;Group&gt;">
						<path id="&lt;Path&gt;" class="s3" d="m166.1 286.6l-8.4-6.6-1.4 10.6z"/>
					</g>
				</g>
			</g>
			<g id="&lt;Group&gt;">
				<g id="&lt;Group&gt;">
					<path id="&lt;Path&gt;" class="s2" d="m163.3 269.9l84.9 44.5"/>
					<g id="&lt;Group&gt;">
						<path id="&lt;Path&gt;" class="s3" d="m244.4 318.4l10.6-0.4-5.7-9z"/>
					</g>
				</g>
			</g>
			<g id="&lt;Group&gt;" style="opacity: .4">
				<g id="&lt;Group&gt;">
					<path id="&lt;Path&gt;" class="s0" d="m215.3 345.1l-20.5-12.5"/>
					<g id="&lt;Group&gt;">
						<path id="&lt;Path&gt;" class="s1" d="m198.9 328.9l-10.6-0.3 5.1 9.4z"/>
					</g>
				</g>
			</g>
			<g id="&lt;Group&gt;" style="opacity: .4">
				<g id="&lt;Group&gt;">
					<path id="&lt;Path&gt;" class="s0" d="m261.7 313.9l-8.7-24.3"/>
					<g id="&lt;Group&gt;">
						<path id="&lt;Path&gt;" class="s1" d="m258.5 289.3l-8.1-6.9-1.9 10.5z"/>
					</g>
				</g>
			</g>
			<g id="&lt;Group&gt;">
				<g id="&lt;Group&gt;">
					<path id="&lt;Path&gt;" class="s2" d="m159.2 258.5l53-64.1"/>
					<g id="&lt;Group&gt;">
						<path id="&lt;Path&gt;" class="s3" d="m215.3 199l1.8-10.5-10 3.7z"/>
					</g>
				</g>
			</g>
			<g id="&lt;Group&gt;">
				<g id="&lt;Group&gt;">
					<path id="&lt;Path&gt;" class="s2" d="m257.8 165.6c-0.9-0.4-22.1-14.7-33-22"/>
					<g id="&lt;Group&gt;">
						<path id="&lt;Path&gt;" class="s3" d="m229 140.1l-10.6-0.8 4.7 9.6z"/>
					</g>
				</g>
			</g>
			<g id="&lt;Group&gt;" style="opacity: .4">
				<g id="&lt;Group&gt;">
					<path id="&lt;Path&gt;" class="s0" d="m201.8 139.3l-28.5 19.6"/>
					<g id="&lt;Group&gt;">
						<path id="&lt;Path&gt;" class="s1" d="m171.6 153.7l-4.6 9.6 10.6-0.9z"/>
					</g>
				</g>
			</g>
			<path id="&lt;Path&gt;" class="s4" d="m53.8 223.5h-43.5c-4.8 0-8.8-3.9-8.8-8.7v-2.1c0-4.8 4-8.7 8.8-8.7h43.5c4.8 0 8.7 3.9 8.7 8.7v2.1c0 4.8-3.9 8.7-8.7 8.7z"/>
			<g id="&lt;Group&gt;">
				<g id="&lt;Group&gt;">
					<path id="&lt;Path&gt;" class="s5" d="m256.7 68.5l8 80.7"/>
					<g id="&lt;Group&gt;">
						<path id="&lt;Path&gt;" class="s3" d="m259.8 148.3l5.5 7.7 4-8.7z"/>
					</g>
				</g>
			</g>
			<g id="&lt;Group&gt;">
				<g id="&lt;Group&gt;">
					<path id="&lt;Path&gt;" class="s2" d="m131.7 51.9l102.5 6"/>
					<g id="&lt;Group&gt;">
						<path id="&lt;Path&gt;" class="s3" d="m232.3 63.1l9.5-4.8-8.8-5.8z"/>
					</g>
				</g>
			</g>
			<g id="&lt;Group&gt;">
				<g id="&lt;Group&gt;">
					<path id="&lt;Path&gt;" class="s2" d="m129.4 58.3l35.7 22.1"/>
					<g id="&lt;Group&gt;">
						<path id="&lt;Path&gt;" class="s3" d="m160.9 84.1l10.7 0.3-5.1-9.4z"/>
					</g>
				</g>
			</g>
			<g id="&lt;Group&gt;">
				<g id="&lt;Group&gt;">
					<path id="&lt;Path&gt;" class="s2" d="m125.5 62.1l22 51.7"/>
					<g id="&lt;Group&gt;">
						<path id="&lt;Path&gt;" class="s3" d="m142 114.5l8.5 6.4 1.3-10.6z"/>
					</g>
				</g>
			</g>
			<g id="&lt;Group&gt;" style="opacity: .4">
				<g id="&lt;Group&gt;">
					<path id="&lt;Path&gt;" class="s0" d="m111.7 12.8l49.4 1.2"/>
					<g id="&lt;Group&gt;">
						<path id="&lt;Path&gt;" class="s1" d="m159.4 19.3l9.4-5.1-9.1-5.5z"/>
					</g>
				</g>
			</g>
			<g id="&lt;Group&gt;" style="opacity: .4">
				<g id="&lt;Group&gt;">
					<path id="&lt;Path&gt;" class="s0" d="m106.1 21.9l6 12"/>
					<g id="&lt;Group&gt;">
						<path id="&lt;Path&gt;" class="s1" d="m106.6 34.9l8.9 5.8 0.6-10.6z"/>
					</g>
				</g>
			</g>
			<text id="CARA" style="transform: matrix(1,0,0,1,9.81,218.62)">
				<tspan x="0" y="0" class="t6">CARA
</tspan>
			</text>
			<text id="A " style="transform: matrix(1,0,0,1,115.197,57.298)">
				<tspan x="0" y="0" class="t6">A
</tspan>
			</text>
			<text id="G " style="transform: matrix(1,0,0,1,171.24,327.861)">
				<tspan x="0" y="0" class="t6">G
</tspan>
			</text>
			<text id="D " style="transform: matrix(1,0,0,1,251.687,63.537)">
				<tspan x="0" y="0" class="t7">D
</tspan>
			</text>
			<text id="E " style="transform: matrix(1,0,0,1,175.996,96.818)">
				<tspan x="0" y="0" class="t7">E
</tspan>
			</text>
			<text id="D " style="transform: matrix(1,0,0,1,203.185,138.523)">
				<tspan x="0" y="0" class="t7">D
</tspan>
			</text>
			<text id="C " style="transform: matrix(1,0,0,1,260.927,175.143)">
				<tspan x="0" y="0" class="t7">C
</tspan>
			</text>
			<text id="H " style="transform: matrix(1,0,0,1,147.5,272.062)">
				<tspan x="0" y="0" class="t7">H
</tspan>
			</text>
			<text id="J " style="transform: matrix(1,0,0,1,261.927,327.716)">
				<tspan x="0" y="0" class="t7">J
</tspan>
			</text>
			<text id="K " style="transform: matrix(1,0,0,1,144.112,368.98)">
				<tspan x="0" y="0" class="t7">K
</tspan>
			</text>
			<text id="I " style="transform: matrix(1,0,0,1,222.201,182.148)">
				<tspan x="0" y="0" class="t7">I
</tspan>
			</text>
			<text id="F " style="transform: matrix(1,0,0,1,152.978,138.523)">
				<tspan x="0" y="0" class="t7">F
</tspan>
			</text>
		</g>
		<g id="&lt;Group&gt;">
			<g id="&lt;Group&gt;">
				<g id="&lt;Group&gt;">
					<g id="&lt;Group&gt;">
						<g id="&lt;Group&gt;">
							<path id="&lt;Path&gt;" class="s3" d="m85.1 510c-0.6 10.4-16.3 10.5-16.3 0 0-10.5 15.7-10.5 16.3 0 0.1 1 1.6 1 1.6 0-0.3-5.3-4.2-9.7-9.7-9.7-5.3 0-9.8 4.4-9.8 9.7 0 5.1 4.1 9.5 9.3 9.7 5.7 0.3 9.9-4.2 10.2-9.7 0-1-1.5-1-1.6 0z"/>
						</g>
					</g>
					<g id="&lt;Group&gt;">
						<g id="&lt;Group&gt;">
							<path id="&lt;Path&gt;" class="s3" d="m132.9 469.4c-0.5 10.4-16.3 10.5-16.3 0 0-10.6 15.8-10.5 16.3 0 0.1 1 1.7 1 1.6 0-0.3-5.3-4.2-9.8-9.7-9.8-5.3 0-9.8 4.5-9.7 9.8 0 5.1 4.1 9.4 9.2 9.7 5.7 0.2 9.9-4.3 10.2-9.7 0.1-1.1-1.5-1.1-1.6 0z"/>
						</g>
					</g>
					<g id="&lt;Group&gt;">
						<g id="&lt;Group&gt;">
							<path id="&lt;Path&gt;" class="s3" d="m202 469.4c-0.6 10.4-16.3 10.5-16.3 0 0-10.6 15.7-10.5 16.3 0 0 1 1.6 1 1.6 0-0.3-5.3-4.3-9.8-9.8-9.8-5.2 0-9.7 4.5-9.7 9.8 0 5.1 4.1 9.4 9.2 9.7 5.7 0.2 10-4.3 10.3-9.7 0-1.1-1.6-1.1-1.6 0z"/>
						</g>
					</g>
					<g id="&lt;Group&gt;">
						<g id="&lt;Group&gt;">
							<path id="&lt;Path&gt;" class="s3" d="m250.1 500.1c-0.6 10.4-16.3 10.5-16.3 0 0-10.6 15.7-10.5 16.3 0 0 1 1.6 1 1.6 0-0.3-5.3-4.3-9.8-9.8-9.8-5.3 0-9.7 4.5-9.7 9.8 0 5.1 4.1 9.4 9.2 9.7 5.7 0.2 10-4.3 10.3-9.7 0-1.1-1.6-1.1-1.6 0z"/>
						</g>
					</g>
					<g id="&lt;Group&gt;">
						<g id="&lt;Group&gt;">
							<path id="&lt;Path&gt;" class="s3" d="m256.7 553.4c-0.6 10.4-16.3 10.5-16.3 0 0-10.5 15.7-10.5 16.3 0 0 1 1.6 1 1.6 0-0.3-5.3-4.3-9.7-9.8-9.7-5.3 0-9.7 4.4-9.7 9.7 0 5.1 4.1 9.4 9.2 9.7 5.7 0.3 10-4.2 10.3-9.7 0-1-1.6-1-1.6 0z"/>
						</g>
					</g>
					<g id="&lt;Group&gt;">
						<g id="&lt;Group&gt;">
							<path id="&lt;Path&gt;" class="s3" d="m221.9 579.7c-0.6 10.4-16.3 10.5-16.3 0 0-10.6 15.7-10.5 16.3 0 0 1 1.6 1 1.5 0-0.2-5.3-4.2-9.8-9.7-9.8-5.3 0-9.8 4.5-9.7 9.8 0 5.1 4.1 9.4 9.2 9.7 5.7 0.3 9.9-4.2 10.2-9.7 0.1-1-1.5-1-1.5 0z"/>
						</g>
					</g>
					<g id="&lt;Group&gt;">
						<g id="&lt;Group&gt;">
							<path id="&lt;Path&gt;" class="s3" d="m240.1 609.5c-0.5 10.4-16.3 10.5-16.3 0 0-10.5 15.8-10.5 16.3 0 0.1 1 1.7 1 1.6 0-0.3-5.3-4.2-9.7-9.7-9.7-5.3 0-9.8 4.4-9.7 9.7 0 5.1 4.1 9.4 9.2 9.7 5.7 0.3 9.9-4.2 10.2-9.7 0.1-1-1.5-1-1.6 0z"/>
						</g>
					</g>
					<g id="&lt;Group&gt;">
						<g id="&lt;Group&gt;">
							<path id="&lt;Path&gt;" class="s3" d="m183.9 586.2c-0.5 10.4-16.3 10.5-16.3 0 0-10.5 15.8-10.4 16.3 0 0.1 1 1.7 1 1.6 0-0.3-5.3-4.2-9.7-9.7-9.7-5.3 0-9.8 4.4-9.8 9.7 0.1 5.1 4.2 9.5 9.3 9.7 5.7 0.3 9.9-4.2 10.2-9.7 0.1-1-1.5-1-1.6 0z"/>
						</g>
					</g>
					<g id="&lt;Group&gt;">
						<g id="&lt;Group&gt;">
							<path id="&lt;Path&gt;" class="s3" d="m198.6 514.9c-0.6 10.4-16.3 10.5-16.3 0 0-10.5 15.7-10.4 16.3 0 0 1 1.6 1 1.6 0-0.3-5.3-4.2-9.7-9.8-9.7-5.2 0-9.7 4.4-9.7 9.7 0 5.1 4.1 9.5 9.2 9.7 5.8 0.3 10-4.2 10.3-9.7 0-1-1.6-1-1.6 0z"/>
						</g>
					</g>
					<g id="&lt;Group&gt;">
						<g id="&lt;Group&gt;">
							<path id="&lt;Path&gt;" class="s3" d="m93.1 547.1c-0.6 10.4-16.3 10.5-16.3 0 0-10.5 15.7-10.5 16.3 0 0.1 1 1.6 1 1.6 0-0.3-5.3-4.2-9.7-9.8-9.7-5.2 0-9.7 4.4-9.7 9.7 0 5.1 4.1 9.5 9.3 9.7 5.7 0.3 9.9-4.2 10.2-9.7 0-1-1.5-1-1.6 0z"/>
						</g>
					</g>
					<g id="&lt;Group&gt;">
						<g id="&lt;Group&gt;">
							<path id="&lt;Path&gt;" class="s3" d="m164.1 553.4c-0.6 10.4-16.3 10.5-16.3 0 0-10.5 15.7-10.5 16.3 0 0 1 1.6 1 1.5 0-0.2-5.3-4.2-9.7-9.7-9.7-5.3 0-9.8 4.4-9.7 9.7 0 5.1 4.1 9.4 9.2 9.7 5.7 0.3 9.9-4.2 10.2-9.7 0.1-1-1.5-1-1.5 0z"/>
						</g>
					</g>
					<g id="&lt;Group&gt;">
						<g id="&lt;Group&gt;">
							<path id="&lt;Path&gt;" class="s3" d="m211.9 549.9c-0.5 10.4-16.3 10.5-16.3 0 0-10.6 15.8-10.5 16.3 0 0.1 1 1.7 1 1.6 0-0.3-5.3-4.2-9.8-9.7-9.8-5.3 0-9.8 4.5-9.8 9.8 0.1 5.1 4.2 9.4 9.3 9.7 5.7 0.2 9.9-4.3 10.2-9.7 0.1-1.1-1.5-1.1-1.6 0z"/>
						</g>
					</g>
					<g id="&lt;Group&gt;">
						<g id="&lt;Group&gt;">
							<path id="&lt;Path&gt;" class="s3" d="m125.4 569.7c-0.6 10.5-16.3 10.6-16.3 0 0-10.5 15.7-10.4 16.3 0 0 1 1.6 1.1 1.5 0-0.2-5.2-4.2-9.7-9.7-9.7-5.3 0-9.8 4.4-9.7 9.7 0 5.2 4.1 9.5 9.2 9.7 5.7 0.3 9.9-4.2 10.2-9.7 0.1-1-1.5-1-1.5 0z"/>
						</g>
					</g>
					<g id="&lt;Group&gt;">
						<g id="&lt;Group&gt;">
							<path id="&lt;Path&gt;" class="s3" d="m142.9 510c-0.6 10.4-16.3 10.5-16.3 0 0-10.5 15.7-10.5 16.3 0 0 1 1.6 1 1.6 0-0.3-5.3-4.3-9.7-9.8-9.7-5.3 0-9.7 4.4-9.7 9.7 0 5.1 4.1 9.5 9.2 9.7 5.7 0.3 10-4.2 10.3-9.7 0-1-1.6-1-1.6 0z"/>
						</g>
					</g>
					<g id="&lt;Group&gt;">
						<g id="&lt;Group&gt;">
							<path id="&lt;Path&gt;" class="s3" d="m126.2 566.3c0 1.2-1 0.5 0.4 0.3 0.8-0.1 1.6-0.7 2.4-1q3.9-1.6 7.8-3.3 5.5-2.3 11.1-4.7c0.3-0.1 0.6-0.3 0.6-0.7q0 0 0 0c0-1-1.6-1-1.6 0 0-1.2 1-0.6-0.4-0.4-0.7 0.1-1.6 0.7-2.4 1q-3.9 1.7-7.8 3.3-5.5 2.3-11.1 4.7c-0.3 0.1-0.5 0.4-0.5 0.8q0 0 0 0c0 1 1.5 1 1.5 0z"/>
						</g>
					</g>
					<g id="&lt;Group&gt;">
						<g id="&lt;Group&gt;">
							<path id="&lt;Path&gt;" class="s3" d="m171.8 578.2q-5.3-8.8-10.6-17.6c-0.5-0.8-1.9 0-1.3 0.8q5.3 8.8 10.6 17.5c0.5 0.9 1.9 0.1 1.3-0.7z"/>
						</g>
					</g>
					<g id="&lt;Group&gt;">
						<g id="&lt;Group&gt;">
							<path id="&lt;Path&gt;" class="s3" d="m204.7 580.4q-10.2 1.8-20.3 3.5c-1 0.2-0.6 1.7 0.4 1.5q10.2-1.7 20.3-3.5c1-0.1 0.6-1.6-0.4-1.5z"/>
						</g>
					</g>
					<g id="&lt;Group&gt;">
						<g id="&lt;Group&gt;">
							<path id="&lt;Path&gt;" class="s3" d="m241 558.1q-10.3 7.8-20.6 15.5c-0.8 0.6 0 2 0.8 1.4q10.3-7.8 20.6-15.5c0.8-0.6 0-2-0.8-1.4z"/>
						</g>
					</g>
					<g id="&lt;Group&gt;">
						<g id="&lt;Group&gt;">
							<path id="&lt;Path&gt;" class="s3" d="m248.2 544.5q-2.2-17.8-4.4-35.6c-0.1-1-1.7-1-1.6 0q2.2 17.8 4.4 35.6c0.2 1 1.7 1 1.6 0z"/>
						</g>
					</g>
					<g id="&lt;Group&gt;">
						<g id="&lt;Group&gt;">
							<path id="&lt;Path&gt;" class="s3" d="m184.9 468.6q-25.6 0-51.2 0c-1 0-1 1.5 0 1.5q25.6 0 51.2 0c1 0 1-1.5 0-1.5z"/>
						</g>
					</g>
					<g id="&lt;Group&gt;">
						<g id="&lt;Group&gt;">
							<path id="&lt;Path&gt;" class="s3" d="m234.8 494.6q-16.5-10.6-33-21.1c-0.9-0.6-1.7 0.8-0.8 1.4q16.5 10.5 33 21c0.9 0.6 1.6-0.8 0.8-1.3z"/>
						</g>
					</g>
					<g id="&lt;Group&gt;">
						<g id="&lt;Group&gt;">
							<path id="&lt;Path&gt;" class="s3" d="m110.3 563.9q-8.8-6.2-17.6-12.3c-0.9-0.6-1.7 0.7-0.8 1.3q8.8 6.2 17.6 12.4c0.8 0.6 1.6-0.8 0.8-1.4z"/>
						</g>
					</g>
					<g id="&lt;Group&gt;">
						<g id="&lt;Group&gt;">
							<path id="&lt;Path&gt;" class="s3" d="m83.8 538.1q-2.1-9.8-4.2-19.6c-0.2-1-1.7-0.6-1.5 0.4q2.1 9.9 4.2 19.7c0.2 1 1.7 0.5 1.5-0.5z"/>
						</g>
					</g>
					<g id="&lt;Group&gt;">
						<g id="&lt;Group&gt;">
							<path id="&lt;Path&gt;" class="s3" d="m117.4 474.6q-17.1 14.5-34.2 29c-0.8 0.7 0.4 1.8 1.1 1.2q17.1-14.6 34.2-29.1c0.8-0.7-0.3-1.8-1.1-1.1z"/>
						</g>
					</g>
					<g id="&lt;Group&gt;">
						<g id="&lt;Group&gt;">
							<path id="&lt;Path&gt;" class="s3" d="m239.6 551.9q-13.5-1.1-26.9-2.1c-1-0.1-1 1.5 0 1.6q13.4 1 26.9 2.1c1 0.1 1-1.5 0-1.6z"/>
						</g>
					</g>
					<g id="&lt;Group&gt;">
						<g id="&lt;Group&gt;">
							<path id="&lt;Path&gt;" class="s3" d="m211.6 571q-2.1-6.4-4.2-12.9c-0.4-0.9-1.9-0.5-1.6 0.5q2.2 6.4 4.3 12.8c0.3 1 1.9 0.5 1.5-0.4z"/>
						</g>
					</g>
					<g id="&lt;Group&gt;">
						<g id="&lt;Group&gt;">
							<path id="&lt;Path&gt;" class="s3" d="m228 601.5q-4.5-7.3-8.9-14.6c-0.6-0.9-1.9-0.1-1.4 0.8q4.5 7.3 8.9 14.6c0.6 0.8 1.9 0 1.4-0.8z"/>
						</g>
					</g>
					<g id="&lt;Group&gt;">
						<g id="&lt;Group&gt;">
							<path id="&lt;Path&gt;" class="s3" d="m223.7 605.3c-0.9 0-4.4-1.9-5.8-2.5q-6.9-2.9-13.8-5.7-9.9-4.1-19.8-8.2c-1-0.4-1.4 1.1-0.5 1.5q10.4 4.3 20.8 8.6 6.8 2.8 13.5 5.6c1.5 0.6 4 2.3 5.6 2.3 1 0 1-1.6 0-1.6z"/>
						</g>
					</g>
					<g id="&lt;Group&gt;">
						<g id="&lt;Group&gt;">
							<path id="&lt;Path&gt;" class="s3" d="m134.5 500.9q-3.3-11.6-6.5-23.1c-0.3-1-1.8-0.6-1.5 0.4q3.2 11.5 6.5 23.1c0.3 1 1.8 0.6 1.5-0.4z"/>
						</g>
					</g>
					<g id="&lt;Group&gt;">
						<g id="&lt;Group&gt;">
							<path id="&lt;Path&gt;" class="s3" d="m181.5 513.3q-18.9-1.7-37.9-3.4c-1-0.1-1 1.5 0 1.5q19 1.8 37.9 3.5c1 0.1 1-1.5 0-1.6z"/>
						</g>
					</g>
					<g id="&lt;Group&gt;">
						<g id="&lt;Group&gt;">
							<path id="&lt;Path&gt;" class="s3" d="m186.1 473.8q-22 15.6-44 31.1c-0.8 0.6 0 2 0.8 1.4q22-15.6 44-31.1c0.8-0.6 0.1-2-0.8-1.4z"/>
						</g>
					</g>
					<g id="&lt;Group&gt;">
						<g id="&lt;Group&gt;">
							<path id="&lt;Path&gt;" class="s3" d="m125.8 509.2q-20 0-39.9 0c-1 0-1 1.6 0 1.6q19.9 0 39.9 0c1 0 1-1.6 0-1.6z"/>
						</g>
					</g>
					<g id="&lt;Group&gt;">
						<g id="&lt;Group&gt;">
							<path id="&lt;Path&gt;" class="s3" d="m192.4 478.3q-1.1 13.8-2.1 27.7c-0.1 1 1.5 1 1.6 0q1-13.9 2.1-27.7c0-1-1.5-1-1.6 0z"/>
						</g>
					</g>
					<g id="&lt;Group&gt;">
						<g id="&lt;Group&gt;">
							<path id="&lt;Path&gt;" class="s3" d="m194.9 549.7q-15.1 1.1-30.1 2.2c-1 0.1-1 1.7 0 1.6q15-1.1 30.1-2.2c1-0.1 1-1.7 0-1.6z"/>
						</g>
					</g>
					<g id="&lt;Group&gt;">
						<g id="&lt;Group&gt;">
							<path id="&lt;Path&gt;" class="s3" d="m233.1 501.8q-17.1 4.9-34.3 9.9c-1 0.2-0.5 1.8 0.4 1.5q17.2-5 34.3-9.9c1-0.3 0.6-1.8-0.4-1.5z"/>
						</g>
					</g>
					<g id="&lt;Group&gt;">
						<g id="&lt;Group&gt;">
							<path id="&lt;Path&gt;" class="s3" d="m235.8 506.7q-13.6 17.9-27.3 35.7c-0.6 0.8 0.8 1.6 1.4 0.8q13.6-17.8 27.3-35.7c0.6-0.8-0.8-1.5-1.4-0.8z"/>
						</g>
					</g>
					<g id="&lt;Group&gt;">
						<g id="&lt;Group&gt;">
							<path id="&lt;Path&gt;" class="s3" d="m201.3 541.3q-3.4-9.1-6.9-18.2c-0.4-1-1.9-0.6-1.5 0.4q3.4 9.1 6.9 18.2c0.4 1 1.9 0.5 1.5-0.4z"/>
						</g>
					</g>
					<g id="&lt;Group&gt;">
						<g id="&lt;Group&gt;">
							<path id="&lt;Path&gt;" class="s3" d="m147 552.7q-26.6-3.4-53.1-6.8c-1-0.1-1 1.5 0 1.6q26.5 3.4 53.1 6.8c1 0.1 1-1.5 0-1.6z"/>
						</g>
					</g>
					<g id="&lt;Group&gt;">
						<g id="&lt;Group&gt;">
							<path id="&lt;Path&gt;" class="s3" d="m152.5 545q-6.1-13.9-12.2-27.9c-0.5-0.9-1.8-0.1-1.4 0.8q6.1 14 12.3 27.9c0.4 0.9 1.7 0.1 1.3-0.8z"/>
						</g>
					</g>
					<g id="&lt;Group&gt;">
						<g id="&lt;Group&gt;">
							<path id="&lt;Path&gt;" class="s3" d="m245.2 561.8q-5.7 19.4-11.4 38.9c-0.3 1 1.2 1.4 1.5 0.4q5.7-19.4 11.5-38.9c0.2-1-1.3-1.4-1.6-0.4z"/>
						</g>
					</g>
					<g id="&lt;Group&gt;">
						<g id="&lt;Group&gt;">
							<path id="&lt;Path&gt;" class="s3" d="m167.4 583q-20.7-5.8-41.4-11.6c-1-0.3-1.4 1.2-0.4 1.5q20.7 5.8 41.4 11.6c0.9 0.3 1.4-1.2 0.4-1.5z"/>
						</g>
					</g>
					<g id="&lt;Group&gt;">
						<g id="&lt;Group&gt;">
							<path id="&lt;Path&gt;" class="s3" d="m183.9 521q-11.3 12.6-22.6 25.2c-0.7 0.7 0.5 1.9 1.1 1.1q11.3-12.6 22.6-25.2c0.7-0.7-0.4-1.9-1.1-1.1z"/>
						</g>
					</g>
					<g id="&lt;Group&gt;">
						<g id="&lt;Group&gt;">
							<path id="&lt;Path&gt;" class="s3" d="m127.2 514.7q-17.8 13.2-35.5 26.4c-0.8 0.6 0 1.9 0.8 1.3q17.7-13.2 35.5-26.4c0.8-0.6 0-2-0.8-1.3z"/>
						</g>
					</g>
				</g>
			</g>
			<g id="&lt;Group&gt;">
				<g id="&lt;Group&gt;">
					<path id="&lt;Path&gt;" class="s1" d="m136.1 416.9c2 0 2-3 0-3-1.9 0-1.9 3 0 3z"/>
				</g>
			</g>
			<g id="&lt;Group&gt;">
				<g id="&lt;Group&gt;">
					<path id="&lt;Path&gt;" class="s1" d="m84.3 419.4c1.9 0 1.9-3 0-3-2 0-2 3 0 3z"/>
				</g>
			</g>
			<g id="&lt;Group&gt;">
				<g id="&lt;Group&gt;">
					<path id="&lt;Path&gt;" class="s1" d="m44.4 478.6c1.9 0 1.9-3 0-3-2 0-2 3 0 3z"/>
				</g>
			</g>
			<g id="&lt;Group&gt;">
				<g id="&lt;Group&gt;">
					<path id="&lt;Path&gt;" class="s1" d="m68.3 467.8c1.9 0 1.9-3 0-3-1.9 0-1.9 3 0 3z"/>
				</g>
			</g>
			<g id="&lt;Group&gt;">
				<g id="&lt;Group&gt;">
					<path id="&lt;Path&gt;" class="s1" d="m39.4 531.7c1.9 0 1.9-3 0-3-2 0-2 3 0 3z"/>
				</g>
			</g>
			<g id="&lt;Group&gt;">
				<g id="&lt;Group&gt;">
					<path id="&lt;Path&gt;" class="s1" d="m5.4 500.7c2 0 2-3 0-3-1.9 0-1.9 3 0 3z"/>
				</g>
			</g>
			<g id="&lt;Group&gt;">
				<g id="&lt;Group&gt;">
					<path id="&lt;Path&gt;" class="s1" d="m60.3 557.6c1.9 0 1.9-3 0-3-1.9 0-1.9 3 0 3z"/>
				</g>
			</g>
			<g id="&lt;Group&gt;">
				<g id="&lt;Group&gt;">
					<path id="&lt;Path&gt;" class="s1" d="m61.3 602.5c1.9 0 1.9-3 0-3-1.9 0-1.9 3 0 3z"/>
				</g>
			</g>
			<g id="&lt;Group&gt;">
				<g id="&lt;Group&gt;">
					<path id="&lt;Path&gt;" class="s1" d="m111.2 606.5c1.9 0 1.9-3 0-3-1.9 0-1.9 3 0 3z"/>
				</g>
			</g>
			<g id="&lt;Group&gt;">
				<g id="&lt;Group&gt;">
					<path id="&lt;Path&gt;" class="s1" d="m87.2 672.3c2 0 2-3 0-3-1.9 0-1.9 3 0 3z"/>
				</g>
			</g>
			<g id="&lt;Group&gt;">
				<g id="&lt;Group&gt;">
					<path id="&lt;Path&gt;" class="s1" d="m97.2 627.4c2 0 2-3 0-3-1.9 0-1.9 3 0 3z"/>
				</g>
			</g>
			<g id="&lt;Group&gt;">
				<g id="&lt;Group&gt;">
					<path id="&lt;Path&gt;" class="s1" d="m161.1 615.5c1.9 0 1.9-3 0-3-2 0-2 3 0 3z"/>
				</g>
			</g>
			<g id="&lt;Group&gt;">
				<g id="&lt;Group&gt;">
					<path id="&lt;Path&gt;" class="s1" d="m213.9 649.3c1.9 0 1.9-3 0-3-2 0-2 3 0 3z"/>
				</g>
			</g>
			<g id="&lt;Group&gt;">
				<g id="&lt;Group&gt;">
					<path id="&lt;Path&gt;" class="s1" d="m193 625.4c1.9 0 1.9-3 0-3-1.9 0-1.9 3 0 3z"/>
				</g>
			</g>
			<g id="&lt;Group&gt;">
				<g id="&lt;Group&gt;">
					<path id="&lt;Path&gt;" class="s1" d="m185 666.4c1.9 0 1.9-3 0-3-1.9 0-1.9 3 0 3z"/>
				</g>
			</g>
			<g id="&lt;Group&gt;">
				<g id="&lt;Group&gt;">
					<path id="&lt;Path&gt;" class="s1" d="m258.8 635.4c2 0 2-3 0-3-1.9 0-1.9 3 0 3z"/>
				</g>
			</g>
			<g id="&lt;Group&gt;">
				<g id="&lt;Group&gt;">
					<path id="&lt;Path&gt;" class="s1" d="m290.8 654.4c1.9 0 1.9-3 0-3-2 0-2 3 0 3z"/>
				</g>
			</g>
			<g id="&lt;Group&gt;">
				<g id="&lt;Group&gt;">
					<path id="&lt;Path&gt;" class="s1" d="m289.8 559.6q0.5 0 1 0 0.3 0 0.5-0.1 0.3-0.1 0.5-0.3 0.2-0.2 0.3-0.5 0.2-0.3 0.2-0.6-0.1-0.2-0.1-0.4-0.1-0.4-0.4-0.7-0.1-0.1-0.3-0.2-0.3-0.2-0.7-0.2-0.5 0-1 0-0.3 0-0.6 0.1-0.3 0.1-0.5 0.3-0.2 0.2-0.3 0.5-0.1 0.3-0.1 0.6 0 0.2 0 0.4 0.1 0.4 0.4 0.7 0.2 0.1 0.3 0.2 0.4 0.2 0.8 0.2z"/>
				</g>
			</g>
			<g id="&lt;Group&gt;">
				<g id="&lt;Group&gt;">
					<path id="&lt;Path&gt;" class="s1" d="m315.7 534.7c1.9 0 1.9-3 0-3-1.9 0-1.9 3 0 3z"/>
				</g>
			</g>
			<g id="&lt;Group&gt;">
				<g id="&lt;Group&gt;">
					<path id="&lt;Path&gt;" class="s1" d="m285.8 509.7c1.9 0 1.9-3 0-3-2 0-2 3 0 3z"/>
				</g>
			</g>
			<g id="&lt;Group&gt;">
				<g id="&lt;Group&gt;">
					<path id="&lt;Path&gt;" class="s1" d="m308.7 442.9c2 0 2-3 0-3-1.9 0-1.9 3 0 3z"/>
				</g>
			</g>
			<g id="&lt;Group&gt;">
				<g id="&lt;Group&gt;">
					<path id="&lt;Path&gt;" class="s1" d="m271.8 476.8c1.9 0 1.9-3 0-3-1.9 0-1.9 3 0 3z"/>
				</g>
			</g>
			<g id="&lt;Group&gt;">
				<g id="&lt;Group&gt;">
					<path id="&lt;Path&gt;" class="s1" d="m231.9 461.8c1.9 0 1.9-3 0-3-1.9 0-1.9 3 0 3z"/>
				</g>
			</g>
			<g id="&lt;Group&gt;">
				<g id="&lt;Group&gt;">
					<path id="&lt;Path&gt;" class="s1" d="m238.9 423.9c1.9 0 1.9-3 0-3-1.9 0-1.9 3 0 3z"/>
				</g>
			</g>
			<g id="&lt;Group&gt;">
				<g id="&lt;Group&gt;">
					<path id="&lt;Path&gt;" class="s1" d="m179 437.9c2 0 2-3 0-3-1.9 0-1.9 3 0 3z"/>
				</g>
			</g>
			<g id="&lt;Group&gt;">
				<g id="&lt;Group&gt;">
					<path id="&lt;Path&gt;" class="s1" d="m277.8 600.5c1.9 0 1.9-3 0-3-1.9 0-1.9 3 0 3z"/>
				</g>
			</g>
		</g>
	</g>
</svg>