<svg id="Layer_2" data-name="Layer 2" xmlns="http://www.w3.org/2000/svg" viewBox="0 0 70.28 26.83">
  <defs>
    <style>
      .cls-1 {
        fill: #fff;
      }
    </style>
  </defs>
  <g id="Hero_Awards" data-name="Hero/Awards">
    <g>
      <path class="cls-1" d="m21.35,22.75c.06-.13.12-.26.18-.39.8-1.93,1.6-3.86,2.4-5.79.16-.38.16-.38.58-.38.38,0,.77,0,1.16,0-.02.32-4.04,9.98-4.43,10.64-.22-.48-.36-.95-.53-1.4-.17-.46-.34-.92-.51-1.39-.16-.45-.33-.9-.49-1.35-.17-.46-.33-.93-.5-1.39-.17-.46-.34-.92-.51-1.37-.03,0-.06,0-.08,0-.87,2.29-1.73,4.57-2.61,6.88-.22-.29-4.18-10.18-4.25-10.61.49,0,.98,0,1.47,0,.07,0,.15.1.19.17.06.1.09.22.14.33.73,1.88,1.47,3.77,2.2,5.65.05.13.11.26.21.49.5-1.23.92-2.39,1.36-3.55.44-1.15.88-2.31,1.36-3.46.49,1.13.89,2.29,1.31,3.44.43,1.16.85,2.32,1.27,3.48.03,0,.06,0,.09,0Z"/>
      <path class="cls-1" d="m36.2,5.27c0,2.91-2.33,5.15-5.3,5.19-2.26.03-5.23-1.82-5.22-5.27C25.69,2.42,28.14,0,30.99.01c2.79,0,5.29,2.43,5.21,5.25Zm-5.23-3.79c-2.12,0-3.74,1.62-3.74,3.75,0,2.11,1.62,3.78,3.67,3.79,2.11,0,3.74-1.61,3.74-3.74,0-2.17-1.57-3.79-3.68-3.79Z"/>
      <path class="cls-1" d="m12.96,1.99c-.34.37-.65.73-.99,1.1-.2-.21-.37-.4-.56-.59-1.85-1.86-5.15-1.14-6.02,1.5-.71,2.15.53,4.4,2.69,4.92,1.29.31,2.66-.24,3.36-1.36.2-.32.34-.66.35-1.07-.42-.09-.83-.03-1.23-.04-.4-.01-.79,0-1.21,0v-1.41h4.13c0,.28,0,.54,0,.8-.06,1.46-.58,2.69-1.74,3.62-1.6,1.28-4.05,1.36-5.78.13-1.82-1.29-2.59-3.09-2.21-5.28.36-2.05,1.61-3.44,3.59-4.05,2.14-.66,4.1-.06,5.6,1.7.02.03.04.07.02.04Z"/>
      <path class="cls-1" d="m52.01,26.26v-10.03c.09-.02.17-.04.24-.04,1,.02,2,0,2.99.07,2.62.18,4.46,2.14,4.52,4.78.01.6-.02,1.2-.21,1.77-.64,1.88-1.95,3.01-3.9,3.35-1.18.2-2.39.08-3.64.11Zm1.53-1.43c.55-.02,1.06-.03,1.56-.07.58-.05,1.12-.23,1.6-.56,1.27-.89,1.69-2.15,1.46-3.63-.23-1.5-1.17-2.48-2.65-2.77-.56-.11-1.13-.11-1.7-.15-.09,0-.18.03-.27.04v7.15Z"/>
      <path class="cls-1" d="m40.83,10.27c-.09-.34-.11-9.57-.03-10,.02-.02.04-.04.06-.05.93-.04,1.86-.04,2.79.09,2.02.28,2.89,3.02,1.54,4.38-.04.04-.06.08-.11.15.08.05.14.09.21.12,1.56.74,1.82,2.75,1.02,3.94-.48.72-1.15,1.18-2.02,1.28-.38.05-.77.07-1.15.08-.64.01-1.28,0-1.92,0-.13,0-.26,0-.38,0Zm1.54-4.45c-.1.35-.1,2.59,0,2.98.45,0,.91.01,1.37,0,.19,0,.39-.07.58-.14.57-.21.9-.71.9-1.32,0-.63-.35-1.14-.93-1.35-.63-.22-1.27-.2-1.91-.16Zm-.05-1.32c.28,0,.51.01.75,0,.83-.06,1.28-.53,1.3-1.36,0-.18-.02-.37-.06-.55-.09-.42-.36-.7-.76-.85-.39-.14-.8-.14-1.24-.08v2.84Z"/>
      <path class="cls-1" d="m44.76,22c1.03,1.42,2.02,2.79,3.08,4.25-.4,0-.7,0-1,0-.29,0-.62.06-.86-.06-.22-.11-.35-.42-.51-.65-.73-1.04-1.45-2.07-2.17-3.11-.09-.13-.15-.33-.45-.23-.04.43-.01.87-.02,1.32,0,.44,0,.88,0,1.32v1.38h-1.51c-.06-.82-.02-1.66-.03-2.49,0-.84,0-1.68,0-2.52v-4.95c.08-.05.1-.07.12-.07,1.09-.02,2.18-.09,3.26.15,1.09.24,1.86.86,2.16,1.96.43,1.57-.35,3.13-1.84,3.59-.06.02-.12.05-.24.1Zm-1.9-1.18c.39-.02.73-.01,1.07-.07.28-.05.57-.13.83-.26.54-.29.7-.79.69-1.38-.01-.54-.22-.96-.71-1.2-.59-.3-1.22-.29-1.88-.26v3.17Z"/>
      <path class="cls-1" d="m4.96,15.65c1.58,3.51,3.15,7.02,4.76,10.6-.57,0-1.05,0-1.54,0-.17,0-.2-.15-.26-.27-.27-.61-.54-1.22-.79-1.83-.1-.24-.23-.35-.5-.34-1.2.01-2.39.01-3.59,0-.25,0-.39.08-.49.31-.27.62-.57,1.23-.84,1.85-.09.22-.22.3-.45.29-.41-.02-.82,0-1.21,0-.03-.04-.04-.05-.04-.06,0-.01-.02-.03-.01-.04.02-.08.05-.15.08-.22,1.59-3.42,3.19-6.85,4.78-10.27h.1Zm1.4,6.72c-.5-1.15-.97-2.22-1.47-3.37-.53,1.15-1.02,2.22-1.54,3.37,1.03.02,1.98.01,3.01,0Z"/>
      <path class="cls-1" d="m37.34,26.25c-.49,0-.98,0-1.47,0-.17,0-.2-.16-.25-.27-.27-.61-.54-1.22-.79-1.83-.1-.25-.24-.34-.5-.33-1.2.01-2.4.01-3.59,0-.25,0-.38.09-.48.31-.31.71-.64,1.4-.97,2.11h-1.56s-.02-.03-.03-.05c0-.01-.01-.03,0-.04,1.59-3.43,3.17-6.85,4.76-10.28.03-.07.08-.14.12-.21.22.24,4.69,10.18,4.76,10.59Zm-6.27-3.94c.46.1,2.65.09,2.95-.02-.47-1.07-.93-2.13-1.39-3.19-.03,0-.06,0-.09,0-.48,1.06-.97,2.12-1.47,3.21Z"/>
      <path class="cls-1" d="m52.85,5.5v3.31h3.98v1.38c-.28.09-5.04.12-5.51.02V.23h5.51v1.38c-.42.07-.86.02-1.29.03-.44,0-.88,0-1.32,0s-.88,0-1.36,0c-.06.8-.04,1.58-.01,2.39h3.86c.05.48.02.93.02,1.43-1.29.06-2.56,0-3.88.03Z"/>
      <path class="cls-1" d="m63.05,1.64v2.39c.42.04.84.01,1.26.02.43,0,.85,0,1.28,0s.85,0,1.31,0c.08.48.02.94.04,1.44h-3.88v3.33c.43,0,.86.01,1.3.01.44,0,.88,0,1.32,0s.87,0,1.34,0v1.38c-.27.09-4.73.13-5.44.04,0,0-.02-.02-.02-.03,0,0-.02-.02-.02-.03,0-.13-.03-.26-.03-.4,0-3.14,0-6.28,0-9.42,0-.04.03-.07.05-.13h5.47v1.4h-3.97Z"/>
      <path class="cls-1" d="m70,17.71c-.41.24-.79.47-1.2.71-.11-.14-.21-.26-.29-.39-.53-.79-1.78-.68-2.28-.21-.53.49-.54,1.21.04,1.66.2.15.43.27.66.37.36.17.74.3,1.1.46.34.16.67.32.98.53.79.51,1.22,1.25,1.27,2.19.12,2.13-1.51,3.37-3.01,3.39-.42,0-.86-.02-1.26-.13-1.21-.35-1.84-1.24-2.11-2.42-.03-.11-.04-.23-.06-.39.5-.11.99-.22,1.52-.34.03.16.05.29.09.41.1.29.17.6.34.84.36.54,1.1.74,1.79.56.59-.16,1.04-.68,1.13-1.31.1-.7-.12-1.26-.73-1.64-.27-.17-.56-.3-.85-.43-.37-.17-.77-.3-1.13-.5-.33-.17-.65-.37-.92-.62-1.04-.95-1.05-2.51-.07-3.53,1.17-1.22,3.85-1.44,5.01.81Z"/>
      <path class="cls-1" d="m18.07.23h1.49v8.6h2.93v1.38c-.3.08-3.85.1-4.39.03-.09-.28-.13-9.28-.04-10.01Z"/>
    </g>
  </g>
</svg>