<svg id="Layer_2" data-name="Layer 2" xmlns="http://www.w3.org/2000/svg" viewBox="0 0 57.11 19.83">
  <defs>
    <style>
      .cls-1 {
        fill: #fff;
      }
    </style>
  </defs>
  <g id="Hero_Awards" data-name="Hero/Awards">
    <g>
      <path class="cls-1" d="m10.99,0c.38.04.77.08,1.15.13,2.7.37,4.86,1.64,6.49,3.86-1.35,1.02-2.7,2.04-3.96,2.99-.32-.28-.62-.53-.92-.79-1.55-1.36-3.31-1.75-5.25-1-1.41.55-2.27,1.65-2.67,3.09-.48,1.71-.29,3.36.74,4.84.96,1.38,2.33,1.97,4.01,1.91,1.49-.06,2.67-.73,3.67-1.8.15-.16.29-.32.46-.5,1.35.93,2.7,1.86,4.1,2.82-.39.44-.75.89-1.15,1.31-1.61,1.67-3.58,2.62-5.88,2.87-1.53.17-3.06.16-4.55-.29-3.77-1.15-6.19-3.6-7.01-7.48-.52-2.48-.14-4.85,1.15-7.05C2.65,2.75,4.52,1.32,6.89.54c.86-.28,1.75-.45,2.65-.5.06,0,.12-.02.18-.04.42,0,.84,0,1.27,0Z"/>
      <path class="cls-1" d="m51.77,10.41v-.25c0-3.16,0-6.32,0-9.48q0-.29.29-.29c1.6,0,3.2,0,4.8,0,.2,0,.26.04.26.26,0,6.18,0,12.36,0,18.55v.24c-.09,0-.16.01-.23.01-1.44,0-2.87,0-4.31,0-.15,0-.25-.04-.34-.16-2.68-3.36-5.36-6.71-8.05-10.06-.05-.06-.1-.12-.19-.23v10.44h-5.35c0-.06-.01-.14-.01-.21,0-6.2,0-12.39,0-18.59,0-.18.04-.25.23-.24,1.54,0,3.09,0,4.63,0,.14,0,.23.05.32.16,2.57,3.22,5.15,6.44,7.73,9.66.06.07.12.14.17.21.02,0,.04-.01.05-.02Z"/>
      <path class="cls-1" d="m33.15,12.82c1.55,2.21,3.09,4.4,4.64,6.61-.09,0-.16.01-.22.01-1.93,0-3.86,0-5.8,0-.16,0-.24-.06-.33-.18-1.23-1.81-2.47-3.61-3.7-5.42-.08-.12-.16-.17-.31-.17-.73,0-1.45,0-2.21,0v5.74h-5.41V.41c.07,0,.13-.02.19-.02,3.31,0,6.61,0,9.92.03,1.45.02,2.87.31,4.15,1.04,1.9,1.07,2.94,2.68,3.08,4.87.07,1.16-.05,2.28-.54,3.34-.62,1.35-1.67,2.27-2.98,2.92-.15.08-.31.14-.49.23Zm-7.92-3.27c.07,0,.11.01.15.01,1.15,0,2.3,0,3.45,0,.32,0,.65-.03.97-.09,1.09-.2,1.77-.84,1.91-1.86.14-1.06-.25-2.01-1.39-2.4-.39-.13-.81-.21-1.21-.22-1.24-.03-2.48-.01-3.71-.02-.05,0-.1.01-.15.02v4.57Z"/>
    </g>
  </g>
</svg>