<svg id="Layer_2" data-name="Layer 2" xmlns="http://www.w3.org/2000/svg" viewBox="0 0 87.87 19.98">
  <defs>
    <style>
      .cls-1 {
        fill: #fff;
      }
    </style>
  </defs>
  <g id="Hero_Awards" data-name="Hero/Awards">
    <g>
      <path class="cls-1" d="m87.42,6.49l-.25,3.04h-1.24c-1.98,0-3.01,1.59-3.01,3.11v6.86h-3.51V6.49h3.32l.08,1.62c.7-1.11,1.92-1.62,3.42-1.62h1.19Z"/>
      <path class="cls-1" d="m63.09,19.5h-3.51v-6.88c0-1.44-.12-3.25-2.15-3.25s-2.73,1.41-2.73,3.05v7.08h-3.51V6.49h3.26l.07,1.66c.7-1.11,2-1.98,3.91-1.98,3.54,0,4.66,2.53,4.66,5.16v8.17Z"/>
      <path class="cls-1" d="m49.65,16.46l-.25,2.96c-.84.23-1.59.31-2.49.31-3.31,0-4.27-1.52-4.27-4.57V2.82h3.51v3.67h3.5l-.24,3.04h-3.25v5.36c0,1.22.34,1.88,1.59,1.88.55,0,1.15-.07,1.91-.32"/>
      <path class="cls-1" d="m41.49,6.49l-.27,3.04h-.95c-1.98,0-2.96,1.59-2.96,3.11v6.86h-3.51V6.49h3.33l.07,1.62c.7-1.11,1.92-1.62,3.43-1.62h.87Z"/>
      <path class="cls-1" d="m17.94,18.06c-2.38,1.28-4.76,2.01-7.91,1.92-5.83-.18-10.03-3.79-10.03-9.91S4.24.09,10.03,0c2.93-.04,5.56.7,7.61,2.51l-2.47,2.5c-1.27-1.08-3.14-1.72-5.37-1.62-3.64.17-5.84,2.82-5.89,6.46-.05,3.94,2.37,6.66,6.15,6.76,1.78.04,3.05-.19,4.16-.69v-4.03h-3.93l.26-3.31h7.38v9.46Z"/>
      <path class="cls-1" d="m74.32,11.51c-.11-1.64-1.34-2.68-3.03-2.61-1.71.06-2.84,1.17-3.08,2.61h6.11Zm3.52,2.72h-9.63c.27,1.66,1.58,2.66,3.21,2.71,1.58.04,2.47-.43,3.62-1.61l2.29,1.75c-1.63,2.01-3.58,2.74-5.81,2.74-3.92,0-6.85-2.74-6.85-6.82s2.92-6.82,6.7-6.82c4.17,0,6.46,2.53,6.46,7.01v1.04Z"/>
      <path class="cls-1" d="m28.2,13.83h-.49c-1.66,0-4.58.09-4.57,1.82.02,2.45,5.06,1.67,5.06-1.28v-.54Zm3.38-2.84v8.52h-3.1l-.08-1.28c-.95,1.18-2.49,1.6-4.08,1.6-2.39,0-4.65-1.18-4.7-3.93-.07-4.32,4.86-4.62,7.96-4.62h.62v-.17c0-1.43-.94-2.2-2.72-2.2-1.28,0-2.54.51-3.47,1.39l-2.03-2.06c1.84-1.49,3.76-2.05,5.79-2.05,4.03,0,5.8,1.86,5.8,4.81"/>
      <path class="cls-1" d="m85.73,17.86v-.62h.42c.21,0,.44.04.44.3,0,.31-.23.33-.49.33h-.37Zm0,.26h.35l.53.87h.34l-.57-.89c.3-.04.52-.19.52-.56,0-.4-.24-.57-.71-.57h-.77v2.02h.3v-.87Zm.37,1.61c.95,0,1.77-.74,1.77-1.75s-.81-1.74-1.77-1.74-1.78.74-1.78,1.74.81,1.75,1.78,1.75m-1.42-1.75c0-.83.63-1.45,1.42-1.45s1.42.62,1.42,1.45-.63,1.46-1.42,1.46-1.42-.62-1.42-1.46"/>
    </g>
  </g>
</svg>