<svg id="Layer_2" data-name="Layer 2" xmlns="http://www.w3.org/2000/svg" xmlns:xlink="http://www.w3.org/1999/xlink" viewBox="0 0 84.26 25.22">
  <defs>
    <style>
      .cls-1 {
        fill: #fff;
      }

      .cls-2 {
        clip-path: url(#clippath-2);
      }

      .cls-3 {
        clip-path: url(#clippath-1);
      }

      .cls-4 {
        fill: none;
      }
    </style>
    <clipPath id="clippath-1">
      <rect class="cls-4" x="0" width="84.13" height="25.22"/>
    </clipPath>
    <clipPath id="clippath-2">
      <rect class="cls-4" x="0" width="84.26" height="25.22"/>
    </clipPath>
  </defs>
  <g id="Hero_Awards" data-name="Hero/Awards">
    <g>
      <g class="cls-3">
        <path class="cls-1" d="m10.4,2.01v.79h-1.92v-.79c0-.07-.03-.1-.09-.1H2.01c-.07,0-.1.03-.1.1v2.14c0,.07.03.1.1.1h6.39c.55,0,1.02.2,1.42.59.39.39.59.87.59,1.42v2.14c0,.56-.2,1.03-.59,1.42-.4.39-.87.58-1.42.58H2.01c-.56,0-1.03-.19-1.42-.58-.39-.39-.58-.87-.58-1.42v-.79h1.91v.79c0,.07.03.1.1.1h6.39c.06,0,.09-.03.09-.1v-2.14c0-.07-.03-.1-.09-.1H2.01c-.56,0-1.03-.19-1.42-.59-.39-.39-.58-.86-.58-1.42v-2.14C0,1.45.2.98.58.59.98.19,1.45,0,2.01,0h6.39C8.94,0,9.42.19,9.81.59c.39.39.59.86.59,1.42"/>
        <polygon class="cls-1" points="21.54 0 21.54 1.91 13.9 1.91 13.9 4.25 20.06 4.25 20.06 6.16 13.9 6.16 13.9 8.5 21.54 8.5 21.54 10.4 11.98 10.4 11.98 0 21.54 0"/>
        <path class="cls-1" d="m33.39,1.91h-8.37c-.07,0-.1.03-.1.1v6.39c0,.07.03.1.1.1h8.37v1.91h-8.37c-.56,0-1.03-.19-1.42-.58-.39-.39-.59-.87-.59-1.42V2.01c0-.56.19-1.03.59-1.42C23.99.2,24.47,0,25.03,0h8.37v1.91Z"/>
        <path class="cls-1" d="m43.35,8.39V0h1.92v8.39c0,.56-.2,1.03-.59,1.42-.39.39-.87.58-1.41.58h-6.39c-.56,0-1.03-.19-1.42-.58-.39-.39-.59-.87-.59-1.42V0h1.91v8.39c0,.07.03.1.1.1h6.39c.06,0,.09-.03.09-.1"/>
        <path class="cls-1" d="m57.25,2.02v2.8c0,.55-.2,1.02-.59,1.42-.39.39-.87.59-1.43.59h-.56l2.59,3.08v.49h-2.08l-3.01-3.57h-3.41v3.57h-1.91V.01h8.38c.56,0,1.04.2,1.43.59.4.4.59.87.59,1.42m-8.39,2.9h6.37c.07,0,.1-.03.1-.1v-2.8c0-.07-.03-.1-.1-.1h-6.37c-.07,0-.1.04-.1.1v2.8c0,.07.03.1.1.1"/>
        <rect class="cls-1" x="58.8" width="1.91" height="10.4"/>
        <polygon class="cls-1" points="61.44 0 71.84 0 71.84 1.91 67.61 1.91 67.61 10.4 65.69 10.4 65.69 1.91 61.44 1.91 61.44 0"/>
        <polygon class="cls-1" points="81.61 0 83.9 0 79.08 6.52 79.08 10.4 77.18 10.4 77.18 6.52 72.37 0 74.64 0 78.13 4.42 81.61 0"/>
      </g>
      <g class="cls-2">
        <path class="cls-1" d="m50.58,15.22h-2.63v3.96c0,.11.04.21.12.29.08.08.18.12.29.12h2.22v.86h-2.22c-.36,0-.66-.12-.9-.37-.24-.25-.37-.55-.37-.9v-3.96H.13v-.86h46.96v-2h.86v2h2.63v.86Z"/>
        <path class="cls-1" d="m52.64,14.36h3.65c.36,0,.66.12.91.37.25.25.37.55.37.9v3.55c0,.35-.12.65-.37.9-.25.25-.55.37-.91.37h-3.65c-.35,0-.65-.12-.9-.37-.25-.25-.37-.55-.37-.9v-3.55c0-.35.13-.65.37-.9.25-.25.55-.37.9-.37m3.65.86h-3.65c-.11,0-.21.04-.29.12-.08.08-.12.18-.12.29v3.55c0,.11.04.21.12.29.08.08.18.12.29.12h3.65c.11,0,.21-.04.29-.12.08-.08.12-.18.12-.29v-3.55c0-.11-.04-.21-.12-.29-.08-.08-.18-.12-.29-.12"/>
        <path class="cls-1" d="m63.68,12.37h.86v8.08h-4.92c-.36,0-.66-.12-.91-.37-.25-.25-.37-.55-.37-.9v-3.55c0-.35.12-.65.37-.9.25-.25.55-.37.91-.37h4.06v-2Zm-4.06,7.22h3.65c.11,0,.21-.04.29-.12.08-.08.12-.18.12-.29v-3.55c0-.11-.04-.21-.12-.29-.08-.08-.18-.12-.29-.12h-3.65c-.11,0-.21.04-.29.12-.08.08-.12.18-.12.29v3.55c0,.11.04.21.12.29.08.08.18.12.29.12"/>
        <path class="cls-1" d="m70.57,14.36c.36,0,.66.12.91.37.25.25.37.55.37.9v4.82h-4.93c-.35,0-.65-.12-.9-.37-.25-.25-.37-.55-.37-.9v-2.21h5.33v-1.34c0-.11-.04-.21-.12-.29-.08-.08-.18-.12-.29-.12h-4.92v-.86h4.92Zm.41,5.23v-1.75h-4.47v1.34c0,.11.04.21.12.29.08.08.18.12.29.12h4.06Z"/>
        <path class="cls-1" d="m79.02,21.58c0,.36-.12.66-.37.91-.25.25-.55.37-.9.37h-4.67v-.87h4.67c.11,0,.21-.04.29-.12.08-.08.12-.18.12-.29v-1.13h-4.06c-.35,0-.65-.12-.9-.37-.25-.25-.37-.55-.37-.9v-4.8h.86v4.8c0,.11.04.21.12.29.08.08.18.12.29.12h3.65c.11,0,.21-.04.29-.12.08-.08.12-.18.12-.29v-4.8h.86v7.2Z"/>
      </g>
    </g>
  </g>
</svg>