<svg id="Layer_2" data-name="Layer 2" xmlns="http://www.w3.org/2000/svg" viewBox="0 0 78.04 20.72">
  <defs>
    <style>
      .cls-1 {
        fill: #fff;
      }
    </style>
  </defs>
  <g id="Hero_Awards" data-name="Hero/Awards">
    <g>
      <g>
        <path class="cls-1" d="m15.71,9.87c.99,0,1.8-.8,1.8-1.8,0-.73-.43-1.35-1.05-1.63-.07-.03-.43,1.43-.46,1.35-.11-.31.18-1.45.16-1.46,0-.02,0-.04,0-.06,0-.99-.8-1.8-1.8-1.8-.14,0-.27.02-.39.05-.34-.82-1.14-1.39-2.08-1.39-.27,0-.53.05-.77.14-.04.01.42.81.34,1.11-.04.15-.51-1.04-.54-1.02-.39-.67-1.11-1.13-1.94-1.13-.94,0-1.74.57-2.07,1.39-.13-.03-.26-.04-.4-.04-1.12,0-2.02.91-2.02,2.02,0,.12.01.23.03.34,0,0,.06.7.49,1.13.06.06,1.55-.95,1.61-.89.2.2-1.38,1.02-1.34,1.06.22.24.82.29.86.39.05.13-.72.13-1.18-.33s-.56-1.32-.58-1.32c-.73.31-1.24,1.02-1.24,1.85,0,1.12.91,2.02,2.02,2.02h7.59s.89-1.82.81-1.18c0,.07-.49,1.18-.49,1.18h2.64,0Z"/>
        <path class="cls-1" d="m7.35,11.74c-.2.71-.66,1.12-.61.88.11-.6.43-.59.41-1.16,0-.22-.24-1.15-.24-1.15h-1.7c-1.09,0-2.02.84-2.07,1.93-.04.93.55,1.72,1.38,2-.02.11-.03.22-.03.34,0,1.05.8,1.91,1.83,2.01.06,0,.13,0,.19,0,.02,0,.73-1.11,1.16-1.23,1.18-.33,1.28.89,1.26.88-.34-.28-.43-.77-1.02-.68-.45.07-1.04,1-1.01.99.34.81,1.14,1.39,2.07,1.39.83,0,1.55-.46,1.94-1.13.3.15.63.23.98.23.81,0,1.51-.43,1.91-1.06.02-.03-.7-.17-1.05-.42-.13-.1-.24-.3-.3-.52,0-.03-.43.06-.78-.04-.32-.09-.57-.37-.58-.4-.06-.48.25.24.8.26.33.01.53-.09.53-.11,0-.21.04-.39.19-.39.02,0-.04.85.37,1.06.33.17.72.28.72.26.13.03.53.01.66.01.99,0,1.8-.8,1.8-1.8,0-.02,0-.04,0-.06.8-.2,1.39-.94,1.35-1.81-.04-.97-.88-1.72-1.85-1.72H7.2"/>
      </g>
      <path class="cls-1" d="m59.87,18.25H25.26c-.24,0-.17-.2-.17-.45v-.51c0-.24-.07-.45.17-.45h35.25"/>
      <g>
        <path class="cls-1" d="m25.17,1.44h1.98v13.83h-1.98V1.44Z"/>
        <path class="cls-1" d="m30.55,6.16v1.16c.8-.89,1.72-1.34,2.74-1.34.57,0,1.1.15,1.58.44s.86.7,1.11,1.21c.25.51.38,1.32.38,2.43v5.21h-1.8v-5.19c0-.93-.14-1.6-.43-1.99-.28-.4-.76-.6-1.43-.6-.85,0-1.57.43-2.17,1.28v6.5h-1.84V6.16h1.84Z"/>
        <path class="cls-1" d="m36.8,7.6l3.39-3.33v1.88h2.88v1.62h-2.88v4.46c0,1.04.43,1.56,1.3,1.56.65,0,1.33-.21,2.05-.64v1.68c-.69.39-1.45.58-2.27.58s-1.51-.24-2.06-.72c-.17-.15-.31-.31-.43-.49-.11-.18-.21-.42-.28-.71-.08-.29-.11-.85-.11-1.68v-4.04h-1.58v-.18h0Z"/>
        <path class="cls-1" d="m51.77,10.87h-6.4c.05.87.34,1.56.88,2.08.54.52,1.23.77,2.08.77,1.19,0,2.28-.37,3.29-1.11v1.76c-.55.37-1.1.63-1.65.79-.54.16-1.18.24-1.91.24-1,0-1.81-.21-2.44-.62-.62-.42-1.12-.97-1.49-1.68-.37-.7-.56-1.52-.56-2.44,0-1.39.39-2.51,1.18-3.38.79-.87,1.8-1.3,3.06-1.3s2.17.42,2.89,1.27c.72.85,1.08,1.98,1.08,3.39v.23h0Zm-6.36-1.08h4.58c-.05-.72-.26-1.27-.64-1.66-.38-.39-.9-.58-1.54-.58s-1.18.19-1.59.58c-.41.39-.68.94-.81,1.66Z"/>
        <path class="cls-1" d="m52.95,1.44h1.8v13.83h-1.8V1.44Z"/>
        <path class="cls-1" d="m56.59,1.44h1.8v13.83h-1.8V1.44Z"/>
        <path class="cls-1" d="m65.97,8.06h2.02l-5.91,12.66h-2.01l2.55-5.51-3.52-7.15h2.05l2.46,5.14,2.36-5.14h0Z"/>
        <path class="cls-1" d="m74.87,6.16h2.17l-3.75,4.49,4.01,4.62h-2.17l-2.86-3.27-2.7,3.27h-2.13l3.83-4.62-3.83-4.49h2.13l2.7,3.12,2.6-3.12h0Z"/>
      </g>
      <path class="cls-1" d="m14.05,1.34c3.3,1.54,5.58,4.88,5.58,8.75,0,5.33-4.32,9.66-9.66,9.66-3.82,0-7.11-2.21-8.68-5.43,1.5,3.53,5,6.01,9.08,6.01,5.44,0,9.85-4.41,9.85-9.85,0-4.14-2.56-7.68-6.18-9.14Z"/>
      <path class="cls-1" d="m65.11,16.84h12.75c.24,0,.17.2.17.45v.51c0,.24.07.45-.17.45h-13.41"/>
      <path class="cls-1" d="m10.05,0C4.5,0,0,4.5,0,10.05s4.5,10.05,10.05,10.05,10.05-4.5,10.05-10.05S15.6,0,10.05,0Zm-.07,19.75C4.65,19.75.33,15.42.33,10.09S4.65.44,9.98.44s9.66,4.32,9.66,9.66-4.32,9.66-9.66,9.66Z"/>
    </g>
  </g>
</svg>