<svg id="Layer_2" data-name="Layer 2" xmlns="http://www.w3.org/2000/svg" viewBox="0 0 33 33">
  <defs>
    <style>
      .cls-1 {
        fill: #66d8b5;
      }
    </style>
  </defs>
  <g id="Partners">
    <g>
      <path class="cls-1" d="m20.13,12.86c-.39-.39-.82-.74-1.29-1.04-1.24-.79-2.68-1.22-4.15-1.22-2.04,0-4,.81-5.44,2.25l-6.99,7C.81,21.3,0,23.26,0,25.3c0,4.25,3.44,7.7,7.69,7.7,2.04,0,4-.8,5.44-2.24l5.77-5.77c.1-.1.16-.25.16-.39,0-.3-.25-.55-.55-.55h-.22c-1.21,0-2.4-.23-3.52-.68-.21-.08-.44-.04-.6.12l-4.15,4.16c-1.29,1.29-3.38,1.29-4.67,0-1.29-1.29-1.29-3.38,0-4.67l7.02-7.02c1.29-1.29,3.38-1.29,4.66,0,.87.82,2.22.82,3.09,0,.37-.37.6-.87.64-1.4.04-.63-.19-1.25-.64-1.69Z"/>
      <path class="cls-1" d="m30.74,2.25c-3.01-3.01-7.88-3.01-10.89,0l-5.77,5.76c-.16.16-.2.4-.12.6.09.21.29.34.52.34h.2c1.2,0,2.4.23,3.51.69.21.08.44.04.6-.12l4.14-4.14c1.29-1.29,3.38-1.29,4.67,0,1.29,1.29,1.29,3.38,0,4.67l-5.16,5.15-.04.05-1.8,1.79c-1.29,1.29-3.37,1.29-4.66,0-.87-.82-2.22-.82-3.09,0-.38.38-.6.88-.64,1.41-.04.63.19,1.25.64,1.69.64.64,1.38,1.16,2.2,1.54.12.05.23.1.35.15.12.05.24.09.35.13.12.04.24.08.35.12l.32.09c.22.05.44.1.67.14.27.04.55.07.82.08h.42l.33-.04c.12,0,.25-.03.39-.03h.19l.38-.05.18-.03.32-.07h.06c1.35-.34,2.58-1.04,3.57-2.02l7-7c3.01-3.01,3.01-7.88,0-10.89Z"/>
    </g>
  </g>
</svg>