<svg id="Layer_2" data-name="Layer 2" xmlns="http://www.w3.org/2000/svg" viewBox="0 0 32.35 31">
  <defs>
    <style>
      .cls-1 {
        fill: #66d8b5;
      }
    </style>
  </defs>
  <g id="Partners">
    <g>
      <path class="cls-1" d="m4.04,13.48h0c.35,0,.69-.13.95-.39L13.04,5.04l1.41,1.41c.19.19.45.3.71.3.13,0,.26-.03.39-.08.38-.16.62-.53.62-.93V1.01c0-.56-.45-1.01-1.01-1.01h-4.72c-.41,0-.78.25-.93.62-.16.38-.07.81.22,1.1l1.41,1.41L3.09,11.18c-.53.53-.53,1.38,0,1.91.26.26.61.39.95.39Z"/>
      <path class="cls-1" d="m9.43,19.21c0-.93-.75-1.68-1.68-1.68H3.03c-.93,0-1.68.75-1.68,1.68v7.75h8.09v-7.75Z"/>
      <path class="cls-1" d="m12.13,13.82v13.14h8.09v-13.14c0-.93-.75-1.68-1.68-1.68h-4.72c-.93,0-1.68.75-1.68,1.68Z"/>
      <path class="cls-1" d="m31,8.42c0-.93-.75-1.68-1.68-1.68h-4.72c-.93,0-1.68.75-1.68,1.68v18.53h8.09V8.42Z"/>
      <path class="cls-1" d="m31.34,28.98H1.01c-.56,0-1.01.45-1.01,1.01s.45,1.01,1.01,1.01h30.33c.56,0,1.01-.45,1.01-1.01s-.45-1.01-1.01-1.01Z"/>
    </g>
  </g>
</svg>