<svg width="220" height="109" viewBox="0 0 220 109" fill="none" xmlns="http://www.w3.org/2000/svg">
<path d="M152.802 57.7299H134.067C134.191 58.6224 134.245 59.4711 134.44 60.2936C135.374 64.1436 138.515 65.7361 142.322 65.4911C143.532 65.4124 144.698 65.1761 145.774 64.5986C146.815 64.0386 147.589 63.2336 148.016 62.1486C148.158 61.7899 148.327 61.6586 148.719 61.6674C149.92 61.6936 151.121 61.6674 152.473 61.6674C152.259 62.2974 152.126 62.8749 151.886 63.4086C151.076 65.2199 149.715 66.5761 147.936 67.4336C143.835 69.4199 139.653 69.5686 135.535 67.5561C132.732 66.1824 131.069 63.8024 130.277 60.8624C129.245 57.0561 129.432 53.3111 131.273 49.7499C132.83 46.7399 135.437 45.0599 138.773 44.4649C141.237 44.0186 143.692 44.1149 146.05 45.0074C149.653 46.3636 151.628 49.0761 152.455 52.6811C152.829 54.3174 152.82 55.9711 152.784 57.7211L152.802 57.7299ZM134.262 54.5624C134.538 54.5624 134.778 54.5624 135.019 54.5624C139.031 54.5624 143.052 54.5624 147.064 54.5624C147.995 54.5624 148.41 54.1103 148.309 53.2061C148.016 50.5636 146.254 48.4899 143.594 47.9649C142.34 47.7199 140.997 47.7111 139.725 47.8686C136.424 48.2711 134.049 51.2199 134.253 54.5624H134.262Z" fill="white"/>
<path d="M178.005 60.7313H182.062C182.328 61.51 182.489 62.28 182.844 62.9625C183.44 64.1175 184.517 64.7475 185.745 65.0975C187.977 65.7363 190.219 65.6925 192.417 64.9488C194.196 64.345 195.014 62.945 194.605 61.3088C194.329 60.2238 193.538 59.5238 192.532 59.1825C191.385 58.7975 190.184 58.57 188.992 58.3163C187.186 57.9313 185.326 57.7038 183.565 57.1788C181.377 56.5313 179.722 55.1575 179.064 52.8913C178.156 49.7588 179.642 46.6613 182.791 45.34C186.714 43.695 190.664 43.7388 194.481 45.6463C196.998 46.8975 198.261 49.015 198.386 51.8588H194.249C194.125 50.45 193.582 49.26 192.337 48.4813C190.842 47.5538 189.161 47.3525 187.453 47.5275C186.554 47.6238 185.647 47.8425 184.81 48.175C183.583 48.6738 182.907 49.6538 182.889 50.9925C182.871 52.2875 183.565 53.2238 184.748 53.6263C186.083 54.09 187.479 54.3875 188.867 54.6588C191.038 55.0788 193.244 55.3588 195.29 56.2775C197.568 57.31 198.84 59.0075 198.982 61.4925C199.133 64.0388 197.959 65.8938 195.815 67.18C193.591 68.5188 191.118 68.9213 188.547 68.9125C186.136 68.9038 183.841 68.475 181.768 67.2063C179.357 65.7275 178.138 63.5575 177.987 60.705L178.005 60.7313Z" fill="white"/>
<path d="M56.0472 44.7012H60.2818C60.2818 44.9549 60.2818 45.1999 60.2818 45.4537C60.2818 50.2487 60.2729 55.0437 60.2996 59.8474C60.2996 61.1337 60.6555 62.3412 61.465 63.3912C62.4258 64.6424 63.778 65.2549 65.2993 65.3512C66.5447 65.4299 67.8347 65.3949 69.0534 65.1499C71.2864 64.7037 72.692 63.0849 72.9945 60.8624C73.0745 60.2849 73.119 59.7074 73.119 59.1299C73.1279 54.5712 73.119 50.0212 73.119 45.4624C73.119 45.2262 73.119 44.9899 73.119 44.7187H77.3358C77.3447 44.9199 77.3714 45.1299 77.3714 45.3399C77.3714 50.2137 77.3892 55.0962 77.3714 59.9699C77.3536 64.1699 74.6847 67.3637 70.2188 68.4662C66.9717 69.2712 63.778 69.0874 60.7622 67.5737C57.693 66.0337 56.0917 63.4699 56.0294 60.1187C55.9405 55.0787 56.0028 50.0474 56.0116 45.0074C56.0116 44.9287 56.0294 44.8499 56.0472 44.7012Z" fill="white"/>
<path d="M25.907 53.9413C27.3215 54.0288 28.6915 54.1076 30.0437 54.1863C30.0437 55.5776 29.9547 56.9163 30.0615 58.2463C30.2305 60.3901 30.871 62.3676 32.5702 63.8813C33.7801 64.9576 35.2391 65.3863 36.8226 65.4826C39.1267 65.6226 41.2529 65.1676 42.8987 63.4176C43.9929 62.2451 44.5445 60.8013 44.7758 59.2526C45.1494 56.7851 45.1227 54.3438 44.2242 51.9638C43.2545 49.4001 40.9059 47.7638 38.1303 47.7201C37.4987 47.7201 36.8671 47.7201 36.191 47.7201V44.3076C36.4845 44.2813 36.7959 44.2376 37.1162 44.2376C39.5181 44.2113 41.8311 44.5876 43.9306 45.8126C46.5817 47.3701 48.1296 49.7326 48.8057 52.6463C49.6865 56.4263 49.5263 60.1451 47.6403 63.6363C45.9856 66.6901 43.2634 68.3001 39.8384 68.7901C37.7478 69.0963 35.6483 69.0351 33.5933 68.4751C29.4743 67.3376 27.1346 64.5551 26.1383 60.5826C25.5956 58.4213 25.5333 56.2338 25.907 53.9588V53.9413Z" fill="white"/>
<path d="M98.731 65.2812C98.731 66.34 98.7399 67.3025 98.7221 68.265C98.7221 68.3962 98.562 68.615 98.4463 68.6325C96.2401 68.9737 94.0338 69.1837 91.8454 68.5625C89.6035 67.9237 88.2958 66.34 88.0823 64.0475C88.0111 63.2687 87.9666 62.49 87.9666 61.7112C87.9577 57.38 87.9666 53.0487 87.9666 48.7087C87.9666 48.4725 87.9666 48.2362 87.9666 47.9212C86.739 47.9212 85.5558 47.8775 84.3904 47.9387C83.7409 47.9737 83.5897 47.7375 83.6164 47.16C83.6609 46.3637 83.6253 45.5587 83.6253 44.6925H88.0467C88.0556 44.4212 88.0734 44.2025 88.0734 43.9925C88.0734 42.6712 88.0645 41.3412 88.0912 40.02C88.0912 39.8187 88.2513 39.495 88.4203 39.4337C89.4612 39.0312 90.5198 38.6812 91.5785 38.3137C92.1034 38.13 92.2546 38.2962 92.2457 38.83C92.219 40.5537 92.2457 42.2775 92.2457 44.01C92.2457 44.2112 92.2457 44.4037 92.2457 44.675H98.5976V47.9125H92.2457C92.2457 48.1925 92.2457 48.4112 92.2457 48.6212C92.2457 53.1712 92.2279 57.73 92.2635 62.28C92.2635 62.9537 92.4147 63.6975 92.7172 64.2925C93.1353 65.115 94.0071 65.4825 94.9145 65.4912C95.9465 65.5087 96.9785 65.3775 98.0104 65.3075C98.2328 65.29 98.4463 65.29 98.7488 65.2725L98.731 65.2812Z" fill="white"/>
<path d="M109.905 68.5188H105.75V34H109.905V68.5188Z" fill="white"/>
<path d="M164.26 68.5011H160.106V44.7274H163.718C163.842 46.0311 163.976 47.3436 164.1 48.6561C164.171 48.6824 164.234 48.7174 164.305 48.7436C165.061 46.9674 166.315 45.6986 168.094 44.9636C169.847 44.2461 171.671 44.3599 173.521 44.3949V48.1224C172.596 48.1224 171.68 48.0524 170.781 48.1311C167.258 48.4636 165.283 50.2311 164.616 53.6611C164.403 54.7724 164.287 55.9274 164.278 57.0649C164.234 60.6786 164.26 64.2836 164.26 67.8974C164.26 68.0724 164.26 68.2561 164.26 68.4924V68.5011Z" fill="white"/>
<path d="M118.747 44.71H122.92V68.4837H118.747V44.71Z" fill="white"/>
<path d="M30.0078 41.5687C29.1182 41.9187 28.2285 42.1725 27.4457 42.6012C25.6486 43.5987 24.7679 45.27 24.2875 47.1687C24.0829 47.9912 24.1185 48.0087 23.2645 47.965C22.3482 47.9212 21.4319 47.8425 20.5245 47.8162C20.0885 47.7987 19.9373 47.6675 20.0352 47.23C20.5778 44.7187 21.6721 42.4962 23.6737 40.79C25.3729 39.3462 27.4101 38.6287 29.6163 38.3837C29.732 38.3662 29.99 38.6112 29.9989 38.7425C30.0345 39.705 30.0167 40.6587 30.0167 41.56L30.0078 41.5687Z" fill="white"/>
<path d="M117.929 37.2464C117.938 35.5139 118.979 34.5689 120.883 34.5777C122.671 34.5777 123.792 35.6189 123.792 37.2727C123.792 38.9964 122.671 40.0114 120.794 40.0027C118.934 39.9939 117.92 39.0139 117.929 37.2464Z" fill="white"/>
</svg>