<svg width="220" height="109" viewBox="0 0 220 109" fill="none" xmlns="http://www.w3.org/2000/svg">
<path d="M11.3623 45.744H16.3499V66.0793H22.1148V41.1064H11.3623V45.744Z" fill="white"/>
<path d="M25.3206 45.744H30.3081V66.0793H36.0818V41.1064H25.3206V45.744Z" fill="white"/>
<path d="M43.6985 59.4028C42.7464 59.4028 41.9341 59.7266 41.2615 60.3653C40.5889 61.0041 40.2483 61.8529 40.2483 62.9029C40.2483 63.9529 40.5889 64.7317 41.2615 65.3792C41.9341 66.0354 42.7552 66.3592 43.6985 66.3592C44.6419 66.3592 45.4892 66.0354 46.153 65.3792C46.8169 64.7229 47.1488 63.9004 47.1488 62.9029C47.1488 61.9054 46.8169 61.0129 46.153 60.3653C45.4892 59.7266 44.6681 59.4028 43.6985 59.4028Z" fill="white"/>
<path d="M63.7537 55.9467C64.9155 54.8529 65.7977 53.8641 66.3916 52.9891C66.9856 52.1054 67.3962 51.2653 67.6233 50.4516C67.8504 49.6466 67.9639 48.8503 67.9639 48.0628C67.9639 46.5403 67.5796 45.2278 66.8022 44.1165C66.0335 43.014 64.9417 42.1565 63.5441 41.5615C62.1465 40.9664 60.5131 40.6689 58.6613 40.6689C56.4252 40.6689 54.4599 41.089 52.7479 41.9202C51.0359 42.7515 49.7169 43.8802 48.791 45.3065L52.9575 48.0191C53.5777 47.1878 54.3201 46.5578 55.2024 46.129C56.0846 45.7003 57.0541 45.4903 58.1198 45.4903C59.4475 45.4903 60.4432 45.7615 61.1158 46.3128C61.7797 46.864 62.1116 47.6253 62.1116 48.5966C62.1116 48.9991 62.0504 49.4366 61.9369 49.9003C61.8146 50.3641 61.5788 50.8628 61.2032 51.3966C60.8363 51.9304 60.2685 52.5429 59.5086 53.2341L49.8916 62.3343V66.0793H68.7675V61.3717H57.9713L63.745 55.9467H63.7537Z" fill="white"/>
<path d="M89.2855 47.8086C90.0017 47.0911 90.8402 46.5399 91.8185 46.1461C92.7881 45.7524 93.8625 45.5599 95.0242 45.5599C96.2558 45.5599 97.4001 45.8136 98.457 46.3124C99.5139 46.8111 100.457 47.5461 101.287 48.5261L105.026 45.1048C103.838 43.6523 102.37 42.5498 100.606 41.8061C98.8501 41.0535 96.8935 40.686 94.7272 40.686C92.8056 40.686 91.0149 41.001 89.3641 41.631C87.7132 42.2611 86.2807 43.1623 85.0578 44.3261C83.8349 45.4899 82.8828 46.8636 82.2103 48.4299C81.5377 49.9962 81.197 51.7287 81.197 53.6012C81.197 55.4737 81.5377 57.2063 82.2103 58.7725C82.8828 60.3388 83.8349 61.7126 85.0403 62.8764C86.2545 64.0401 87.6783 64.9414 89.3291 65.5714C90.98 66.2014 92.7619 66.5164 94.6923 66.5164C96.876 66.5164 98.8501 66.1314 100.606 65.3789C102.361 64.6176 103.838 63.5151 105.026 62.0626L101.287 58.6413C100.457 59.6126 99.5139 60.3563 98.457 60.8726C97.4001 61.3801 96.2558 61.6426 95.0242 61.6426C93.8625 61.6426 92.7881 61.4501 91.8185 61.0563C90.849 60.6626 90.0017 60.1113 89.2855 59.3938C88.5692 58.6763 88.0189 57.8363 87.6258 56.8563C87.2328 55.885 87.0406 54.8 87.0406 53.61C87.0406 52.42 87.2328 51.3349 87.6258 50.3637C88.0189 49.3924 88.5692 48.5436 89.2855 47.8261V47.8086Z" fill="white"/>
<path d="M122.871 48.6666C121.255 47.2841 118.992 46.6016 116.066 46.6016C114.546 46.6016 113.053 46.7941 111.577 47.1878C110.1 47.5816 108.843 48.1591 107.803 48.9203L109.76 52.8054C110.476 52.2629 111.323 51.8254 112.31 51.5016C113.297 51.1779 114.302 51.0204 115.324 51.0204C116.817 51.0204 117.927 51.3529 118.652 52.0179C119.377 52.6829 119.735 53.6104 119.735 54.8004V54.8354H115.35C113.376 54.8354 111.786 55.0717 110.581 55.5529C109.367 56.0254 108.484 56.6992 107.925 57.5655C107.366 58.4317 107.087 59.4292 107.087 60.5405C107.087 61.6518 107.375 62.623 107.96 63.4981C108.546 64.3818 109.367 65.0731 110.432 65.5893C111.498 66.1056 112.773 66.3593 114.241 66.3593C115.927 66.3593 117.307 66.0356 118.372 65.3793C119.097 64.9331 119.665 64.3643 120.084 63.6818V66.0793H125.282V55.1242C125.282 52.2016 124.478 50.0491 122.862 48.6666H122.871ZM118.154 61.9755C117.403 62.4043 116.555 62.6143 115.603 62.6143C114.651 62.6143 113.9 62.4043 113.341 61.993C112.782 61.573 112.502 61.013 112.502 60.2955C112.502 59.6567 112.747 59.1142 113.236 58.6942C113.725 58.2655 114.616 58.0555 115.927 58.0555H119.735V60.0155C119.429 60.8993 118.896 61.5468 118.154 61.9755Z" fill="white"/>
<path d="M146.507 47.8265C145.066 47.004 143.441 46.5928 141.607 46.5928C139.965 46.5928 138.541 46.9515 137.318 47.6603C136.672 48.0365 136.113 48.5178 135.624 49.1041V46.8728H130.313V72.9919H135.868V64.023C136.322 64.5218 136.829 64.9505 137.397 65.283C138.611 66.0006 140.008 66.3506 141.598 66.3506C143.424 66.3506 145.057 65.9393 146.498 65.1168C147.931 64.2943 149.075 63.1568 149.914 61.6955C150.752 60.2342 151.18 58.4929 151.18 56.4717C151.18 54.4504 150.761 52.7354 149.914 51.2653C149.066 49.7866 147.931 48.6403 146.498 47.8265H146.507ZM144.909 59.3155C144.472 60.1117 143.887 60.7242 143.162 61.153C142.437 61.5817 141.616 61.7917 140.69 61.7917C139.764 61.7917 138.934 61.5817 138.2 61.153C137.467 60.7242 136.873 60.1117 136.436 59.3155C135.999 58.5192 135.781 57.5742 135.781 56.4804C135.781 55.3866 135.999 54.4154 136.436 53.6279C136.873 52.8404 137.467 52.2454 138.2 51.8253C138.934 51.4053 139.764 51.2041 140.69 51.2041C141.616 51.2041 142.437 51.4141 143.162 51.8253C143.887 52.2454 144.463 52.8404 144.909 53.6279C145.345 54.4154 145.564 55.3604 145.564 56.4804C145.564 57.6004 145.345 58.5192 144.909 59.3155Z" fill="white"/>
<path d="M160.448 46.8813H154.893V66.0791H160.448V46.8813Z" fill="white"/>
<path d="M160.177 38.84C159.522 38.28 158.684 38 157.67 38C156.657 38 155.784 38.2975 155.137 38.8925C154.5 39.4875 154.177 40.2225 154.177 41.1063C154.177 41.9901 154.5 42.7251 155.137 43.3201C155.775 43.9151 156.622 44.2126 157.67 44.2126C158.719 44.2126 159.557 43.9063 160.204 43.3026C160.85 42.6988 161.164 41.9288 161.164 41.0013C161.164 40.1175 160.841 39.4 160.186 38.84H160.177Z" fill="white"/>
<path d="M174.196 61.9405C173.48 61.9405 172.921 61.713 172.502 61.2668C172.083 60.8117 171.882 60.1817 171.882 59.3767V51.5979H176.616V47.3191H171.882V42.6465H166.291V47.3191H163.339V51.5979H166.291V59.4817C166.291 61.7655 166.92 63.4805 168.178 64.6355C169.436 65.7906 171.192 66.3681 173.445 66.3681C174.301 66.3681 175.122 66.2631 175.917 66.0618C176.712 65.8606 177.385 65.5543 177.926 65.1518L176.468 61.223C175.847 61.6955 175.087 61.9405 174.188 61.9405H174.196Z" fill="white"/>
<path d="M195.64 48.6666C194.025 47.2841 191.762 46.6016 188.836 46.6016C187.316 46.6016 185.823 46.7941 184.346 47.1878C182.87 47.5816 181.612 48.1591 180.573 48.9203L182.53 52.8054C183.246 52.2629 184.093 51.8254 185.08 51.5016C186.067 51.1779 187.072 51.0204 188.094 51.0204C189.587 51.0204 190.697 51.3529 191.422 52.0179C192.147 52.6829 192.505 53.6104 192.505 54.8004V54.8354H188.12C186.146 54.8354 184.556 55.0717 183.351 55.5529C182.136 56.0254 181.254 56.6992 180.695 57.5655C180.136 58.4317 179.857 59.4292 179.857 60.5405C179.857 61.6518 180.145 62.623 180.73 63.4981C181.315 64.3818 182.136 65.0731 183.202 65.5893C184.268 66.1056 185.543 66.3593 187.01 66.3593C188.696 66.3593 190.076 66.0356 191.142 65.3793C191.867 64.9331 192.435 64.3643 192.854 63.6818V66.0793H198.051V55.1242C198.051 52.2016 197.248 50.0491 195.632 48.6666H195.64ZM190.924 61.9755C190.173 62.4043 189.325 62.6143 188.373 62.6143C187.421 62.6143 186.67 62.4043 186.111 61.993C185.552 61.573 185.272 61.013 185.272 60.2955C185.272 59.6567 185.517 59.1142 186.006 58.6942C186.495 58.2655 187.386 58.0555 188.696 58.0555H192.505V60.0155C192.199 60.8993 191.666 61.5468 190.924 61.9755Z" fill="white"/>
<path d="M208.638 39.6011H203.083V66.0702H208.638V39.6011Z" fill="white"/>
</svg>